<svg width="320" height="480" viewBox="0 0 320 480" fill="none" xmlns="http://www.w3.org/2000/svg">
<rect width="320" height="480" fill="white"/>
<path d="M136.897 432.57H138.387V431.72H134.307V432.57H135.897V433.22C135.897 434.83 135.297 436.46 134.017 437.26L134.637 438.02C135.507 437.47 136.087 436.5 136.407 435.36C136.727 436.41 137.287 437.3 138.137 437.8L138.737 437.05C137.477 436.32 136.897 434.76 136.897 433.22V432.57ZM139.057 433.91H137.727V434.75H139.057V439.33H140.027V430.91H139.057V433.91ZM140.877 430.73V439.76H141.857V430.73H140.877ZM149.757 434.33C150.007 433.4 150.007 432.65 150.007 431.93V431.17H143.807V432H148.987C148.987 432.68 148.977 433.33 148.747 434.22L149.757 434.33ZM146.907 438.98C145.567 438.98 144.747 438.65 144.747 438.08C144.747 437.52 145.567 437.19 146.907 437.19C148.237 437.19 149.037 437.52 149.037 438.08C149.037 438.65 148.237 438.98 146.907 438.98ZM146.907 436.4C144.957 436.4 143.727 437.04 143.727 438.08C143.727 439.13 144.957 439.77 146.907 439.77C148.827 439.77 150.067 439.13 150.067 438.08C150.067 437.04 148.827 436.4 146.907 436.4ZM147.107 434.87V433.21H146.067V434.87H142.867V435.7H151.007V434.87H147.107ZM156.982 439.11C158.952 439.11 160.642 437.66 160.642 435.36C160.642 433.07 158.952 431.65 156.982 431.65C155.022 431.65 153.332 433.06 153.332 435.36C153.332 437.66 155.022 439.11 156.982 439.11ZM156.982 438.58C155.302 438.58 153.932 437.29 153.932 435.36C153.932 433.44 155.302 432.17 156.982 432.17C158.672 432.17 160.042 433.44 160.042 435.36C160.042 437.29 158.672 438.58 156.982 438.58ZM157.092 437.59C157.732 437.59 158.182 437.32 158.592 436.97L158.202 436.4C157.882 436.66 157.572 436.86 157.122 436.86C156.372 436.86 155.892 436.28 155.892 435.37C155.892 434.55 156.382 433.95 157.172 433.95C157.542 433.95 157.792 434.11 158.082 434.39L158.542 433.87C158.182 433.51 157.762 433.23 157.112 433.23C156.012 433.23 155.012 434.05 155.012 435.37C155.012 436.75 155.912 437.59 157.092 437.59ZM163.397 439H164.557V431.63H163.397V439ZM165.983 439H167.143V436.03H168.333L170.003 439H171.313L169.513 435.88C170.443 435.59 171.053 434.91 171.053 433.77C171.053 432.18 169.913 431.63 168.393 431.63H165.983V439ZM167.143 435.1V432.57H168.253C169.323 432.57 169.903 432.88 169.903 433.77C169.903 434.66 169.323 435.1 168.253 435.1H167.143ZM175.045 439.13C176.055 439.13 176.885 438.76 177.375 438.27V435.08H174.865V436.03H176.325V437.76C176.065 437.99 175.615 438.12 175.165 438.12C173.645 438.12 172.835 437.05 172.835 435.3C172.835 433.57 173.745 432.51 175.115 432.51C175.825 432.51 176.275 432.8 176.645 433.17L177.265 432.43C176.815 431.96 176.115 431.5 175.075 431.5C173.125 431.5 171.645 432.94 171.645 435.34C171.645 437.75 173.085 439.13 175.045 439.13ZM181.357 439.13C183.247 439.13 184.567 437.66 184.567 435.29C184.567 432.92 183.247 431.5 181.357 431.5C179.467 431.5 178.157 432.92 178.157 435.29C178.157 437.66 179.467 439.13 181.357 439.13ZM181.357 438.12C180.137 438.12 179.347 437.01 179.347 435.29C179.347 433.56 180.137 432.51 181.357 432.51C182.577 432.51 183.377 433.56 183.377 435.29C183.377 437.01 182.577 438.12 181.357 438.12Z" fill="#8E8E93"/>
<path d="M106.927 269.539H105.204V259.586H106.927V269.539ZM110.434 262.143L110.481 262.997C111.028 262.336 111.746 262.006 112.635 262.006C114.175 262.006 114.959 262.888 114.986 264.651V269.539H113.325V264.747C113.325 264.278 113.223 263.931 113.018 263.708C112.817 263.48 112.487 263.366 112.026 263.366C111.356 263.366 110.857 263.669 110.529 264.276V269.539H108.868V262.143H110.434ZM119.293 267.434L120.858 262.143H122.574L120.011 269.539H118.568L115.984 262.143H117.707L119.293 267.434ZM126.778 269.676C125.726 269.676 124.871 269.345 124.215 268.685C123.563 268.019 123.237 267.135 123.237 266.032V265.827C123.237 265.089 123.379 264.43 123.661 263.852C123.948 263.268 124.349 262.815 124.864 262.491C125.379 262.168 125.953 262.006 126.587 262.006C127.594 262.006 128.371 262.327 128.918 262.97C129.469 263.612 129.745 264.522 129.745 265.697V266.367H124.912C124.962 266.978 125.165 267.461 125.521 267.817C125.881 268.172 126.332 268.35 126.874 268.35C127.635 268.35 128.255 268.042 128.733 267.427L129.629 268.281C129.333 268.723 128.936 269.068 128.439 269.314C127.947 269.555 127.394 269.676 126.778 269.676ZM126.58 263.339C126.124 263.339 125.755 263.498 125.473 263.818C125.195 264.137 125.017 264.581 124.939 265.151H128.104V265.027C128.068 264.471 127.92 264.052 127.66 263.77C127.4 263.483 127.04 263.339 126.58 263.339ZM135.187 267.529C135.187 267.233 135.063 267.008 134.817 266.853C134.576 266.698 134.173 266.561 133.607 266.443C133.042 266.324 132.571 266.174 132.192 265.991C131.363 265.59 130.948 265.009 130.948 264.248C130.948 263.61 131.217 263.077 131.755 262.649C132.293 262.22 132.976 262.006 133.806 262.006C134.69 262.006 135.403 262.225 135.945 262.662C136.492 263.1 136.766 263.667 136.766 264.364H135.104C135.104 264.045 134.986 263.781 134.749 263.571C134.512 263.357 134.198 263.25 133.806 263.25C133.441 263.25 133.143 263.334 132.91 263.503C132.682 263.672 132.568 263.897 132.568 264.18C132.568 264.435 132.675 264.633 132.89 264.775C133.104 264.916 133.537 265.059 134.188 265.205C134.84 265.346 135.351 265.517 135.72 265.718C136.093 265.914 136.369 266.151 136.547 266.429C136.729 266.707 136.82 267.044 136.82 267.441C136.82 268.106 136.545 268.646 135.993 269.061C135.442 269.471 134.719 269.676 133.826 269.676C133.22 269.676 132.68 269.567 132.206 269.348C131.732 269.129 131.363 268.828 131.099 268.445C130.834 268.063 130.702 267.65 130.702 267.208H132.315C132.338 267.6 132.486 267.903 132.76 268.117C133.033 268.327 133.396 268.432 133.847 268.432C134.284 268.432 134.617 268.35 134.845 268.186C135.073 268.017 135.187 267.798 135.187 267.529ZM140.354 260.345V262.143H141.66V263.373H140.354V267.502C140.354 267.785 140.409 267.99 140.519 268.117C140.632 268.24 140.833 268.302 141.12 268.302C141.312 268.302 141.505 268.279 141.701 268.234V269.519C141.323 269.623 140.958 269.676 140.607 269.676C139.331 269.676 138.693 268.972 138.693 267.564V263.373H137.477V262.143H138.693V260.345H140.354ZM142.419 265.773C142.419 265.048 142.562 264.396 142.85 263.818C143.137 263.234 143.54 262.788 144.06 262.478C144.579 262.163 145.176 262.006 145.851 262.006C146.849 262.006 147.658 262.327 148.277 262.97C148.902 263.612 149.239 264.465 149.289 265.526L149.296 265.916C149.296 266.645 149.155 267.297 148.872 267.871C148.594 268.445 148.193 268.89 147.669 269.204C147.149 269.519 146.548 269.676 145.864 269.676C144.821 269.676 143.984 269.33 143.355 268.637C142.731 267.94 142.419 267.012 142.419 265.855V265.773ZM144.08 265.916C144.08 266.677 144.237 267.274 144.552 267.707C144.866 268.136 145.304 268.35 145.864 268.35C146.425 268.35 146.86 268.131 147.17 267.693C147.484 267.256 147.642 266.616 147.642 265.773C147.642 265.025 147.48 264.433 147.156 263.995C146.837 263.558 146.402 263.339 145.851 263.339C145.308 263.339 144.878 263.555 144.559 263.988C144.24 264.417 144.08 265.059 144.08 265.916ZM154.573 263.66C154.354 263.624 154.129 263.606 153.896 263.606C153.135 263.606 152.623 263.897 152.358 264.481V269.539H150.697V262.143H152.283L152.324 262.97C152.725 262.327 153.281 262.006 153.992 262.006C154.229 262.006 154.425 262.038 154.58 262.102L154.573 263.66ZM162.927 265.704H160.999V269.539H159.27V259.586H162.77C163.918 259.586 164.804 259.844 165.429 260.359C166.053 260.873 166.365 261.619 166.365 262.594C166.365 263.259 166.203 263.818 165.88 264.269C165.561 264.715 165.114 265.059 164.54 265.301L166.775 269.45V269.539H164.923L162.927 265.704ZM160.999 264.317H162.776C163.36 264.317 163.815 264.171 164.144 263.879C164.472 263.583 164.636 263.179 164.636 262.669C164.636 262.136 164.483 261.723 164.178 261.432C163.877 261.14 163.426 260.99 162.824 260.981H160.999V264.317ZM171.103 269.676C170.05 269.676 169.195 269.345 168.539 268.685C167.887 268.019 167.562 267.135 167.562 266.032V265.827C167.562 265.089 167.703 264.43 167.985 263.852C168.272 263.268 168.674 262.815 169.188 262.491C169.703 262.168 170.278 262.006 170.911 262.006C171.918 262.006 172.695 262.327 173.242 262.97C173.794 263.612 174.069 264.522 174.069 265.697V266.367H169.236C169.286 266.978 169.489 267.461 169.845 267.817C170.205 268.172 170.656 268.35 171.198 268.35C171.959 268.35 172.579 268.042 173.058 267.427L173.953 268.281C173.657 268.723 173.26 269.068 172.764 269.314C172.271 269.555 171.718 269.676 171.103 269.676ZM170.904 263.339C170.449 263.339 170.079 263.498 169.797 263.818C169.519 264.137 169.341 264.581 169.264 265.151H172.429V265.027C172.392 264.471 172.244 264.052 171.984 263.77C171.725 263.483 171.365 263.339 170.904 263.339ZM177.132 269.539H175.471V259.039H177.132V269.539ZM183.366 269.539C183.293 269.398 183.229 269.168 183.175 268.849C182.646 269.4 181.999 269.676 181.233 269.676C180.491 269.676 179.884 269.464 179.415 269.04C178.946 268.616 178.711 268.092 178.711 267.468C178.711 266.679 179.003 266.076 179.586 265.656C180.174 265.233 181.012 265.021 182.102 265.021H183.12V264.535C183.12 264.152 183.013 263.847 182.799 263.619C182.585 263.387 182.259 263.271 181.821 263.271C181.443 263.271 181.133 263.366 180.892 263.558C180.65 263.745 180.529 263.984 180.529 264.276H178.868C178.868 263.87 179.003 263.492 179.271 263.141C179.54 262.785 179.905 262.507 180.365 262.307C180.83 262.106 181.347 262.006 181.917 262.006C182.783 262.006 183.473 262.225 183.988 262.662C184.503 263.095 184.768 263.706 184.781 264.494V267.83C184.781 268.496 184.875 269.026 185.062 269.423V269.539H183.366ZM181.541 268.343C181.869 268.343 182.177 268.263 182.464 268.104C182.756 267.944 182.974 267.73 183.12 267.461V266.067H182.225C181.609 266.067 181.147 266.174 180.837 266.388C180.527 266.602 180.372 266.905 180.372 267.297C180.372 267.616 180.477 267.871 180.687 268.063C180.901 268.249 181.186 268.343 181.541 268.343ZM188.603 260.345V262.143H189.908V263.373H188.603V267.502C188.603 267.785 188.657 267.99 188.767 268.117C188.881 268.24 189.081 268.302 189.368 268.302C189.56 268.302 189.753 268.279 189.949 268.234V269.519C189.571 269.623 189.206 269.676 188.855 269.676C187.579 269.676 186.941 268.972 186.941 267.564V263.373H185.725V262.143H186.941V260.345H188.603ZM192.95 269.539H191.289V262.143H192.95V269.539ZM191.187 260.222C191.187 259.967 191.266 259.755 191.426 259.586C191.59 259.417 191.822 259.333 192.123 259.333C192.424 259.333 192.656 259.417 192.82 259.586C192.984 259.755 193.066 259.967 193.066 260.222C193.066 260.472 192.984 260.682 192.82 260.851C192.656 261.015 192.424 261.097 192.123 261.097C191.822 261.097 191.59 261.015 191.426 260.851C191.266 260.682 191.187 260.472 191.187 260.222ZM194.454 265.773C194.454 265.048 194.598 264.396 194.885 263.818C195.172 263.234 195.575 262.788 196.095 262.478C196.614 262.163 197.211 262.006 197.886 262.006C198.884 262.006 199.693 262.327 200.312 262.97C200.937 263.612 201.274 264.465 201.324 265.526L201.331 265.916C201.331 266.645 201.19 267.297 200.907 267.871C200.629 268.445 200.228 268.89 199.704 269.204C199.185 269.519 198.583 269.676 197.899 269.676C196.856 269.676 196.02 269.33 195.391 268.637C194.766 267.94 194.454 267.012 194.454 265.855V265.773ZM196.115 265.916C196.115 266.677 196.272 267.274 196.587 267.707C196.901 268.136 197.339 268.35 197.899 268.35C198.46 268.35 198.895 268.131 199.205 267.693C199.52 267.256 199.677 266.616 199.677 265.773C199.677 265.025 199.515 264.433 199.191 263.995C198.872 263.558 198.437 263.339 197.886 263.339C197.343 263.339 196.913 263.555 196.594 263.988C196.275 264.417 196.115 265.059 196.115 265.916ZM204.277 262.143L204.325 262.997C204.872 262.336 205.59 262.006 206.479 262.006C208.019 262.006 208.803 262.888 208.83 264.651V269.539H207.169V264.747C207.169 264.278 207.066 263.931 206.861 263.708C206.661 263.48 206.33 263.366 205.87 263.366C205.2 263.366 204.701 263.669 204.373 264.276V269.539H202.712V262.143H204.277ZM214.675 267.529C214.675 267.233 214.552 267.008 214.306 266.853C214.064 266.698 213.661 266.561 213.096 266.443C212.531 266.324 212.059 266.174 211.681 265.991C210.851 265.59 210.437 265.009 210.437 264.248C210.437 263.61 210.705 263.077 211.243 262.649C211.781 262.22 212.465 262.006 213.294 262.006C214.178 262.006 214.891 262.225 215.434 262.662C215.98 263.1 216.254 263.667 216.254 264.364H214.593C214.593 264.045 214.474 263.781 214.237 263.571C214 263.357 213.686 263.25 213.294 263.25C212.929 263.25 212.631 263.334 212.398 263.503C212.171 263.672 212.057 263.897 212.057 264.18C212.057 264.435 212.164 264.633 212.378 264.775C212.592 264.916 213.025 265.059 213.677 265.205C214.328 265.346 214.839 265.517 215.208 265.718C215.582 265.914 215.857 266.151 216.035 266.429C216.217 266.707 216.309 267.044 216.309 267.441C216.309 268.106 216.033 268.646 215.481 269.061C214.93 269.471 214.208 269.676 213.314 269.676C212.708 269.676 212.168 269.567 211.694 269.348C211.22 269.129 210.851 268.828 210.587 268.445C210.323 268.063 210.19 267.65 210.19 267.208H211.804C211.826 267.6 211.975 267.903 212.248 268.117C212.521 268.327 212.884 268.432 213.335 268.432C213.772 268.432 214.105 268.35 214.333 268.186C214.561 268.017 214.675 267.798 214.675 267.529Z" fill="#8E8E93"/>
<g clip-path="url(#clip0)">
<path d="M137.516 236.23C140.638 233.449 142.781 229.019 142.781 224.024C142.781 215.163 136.211 208 128.103 208C119.948 208 113.377 215.163 113.377 224.024C113.377 232.884 119.948 240.047 128.056 240.047C131.271 240.047 134.16 238.916 136.397 237.172C136.397 224.589 136.397 224.589 136.397 224.589C125.26 224.589 125.26 224.589 125.26 224.589C125.26 223.411 125.26 223.411 125.26 223.411C137.516 223.411 137.516 223.411 137.516 223.411V236.23Z" fill="#F15F22"/>
<path d="M98.5581 218.133C98.5581 208.99 98.5581 208.99 98.5581 208.99C75.0718 208.99 75.0718 208.99 75.0718 208.99C74.466 208.99 74 209.508 74 210.121C74 237.879 74 237.879 74 237.879C74 238.492 74.466 238.963 75.0718 238.963C98.5581 238.963 98.5581 238.963 98.5581 238.963C98.5581 229.82 98.5581 229.82 98.5581 229.82C86.3024 229.82 86.3024 229.82 86.3024 229.82C86.3024 228.548 86.3024 228.548 86.3024 228.548C98.5581 228.548 98.5581 228.548 98.5581 228.548C98.5581 219.405 98.5581 219.405 98.5581 219.405C86.3024 219.405 86.3024 219.405 86.3024 219.405C86.3024 218.133 86.3024 218.133 86.3024 218.133H98.5581V218.133Z" fill="#80C342"/>
<path d="M172.745 209.885C170.415 209.885 170.415 209.885 170.415 209.885C170.322 209.885 170.275 209.979 170.275 210.074C170.275 214.739 170.275 214.739 170.275 214.739C165.615 214.739 165.615 214.739 165.615 214.739C165.615 210.074 165.615 210.074 165.615 210.074C165.615 209.979 165.522 209.885 165.476 209.885C163.146 209.885 163.146 209.885 163.146 209.885C163.052 209.885 163.006 209.979 163.006 210.074C163.006 221.809 163.006 221.809 163.006 221.809C163.006 221.903 163.099 221.997 163.146 221.997C165.476 221.997 165.476 221.997 165.476 221.997C165.569 221.997 165.615 221.903 165.615 221.809C165.615 217.143 165.615 217.143 165.615 217.143C170.275 217.143 170.275 217.143 170.275 217.143C170.275 221.809 170.275 221.809 170.275 221.809C170.275 221.903 170.369 221.997 170.415 221.997C172.745 221.997 172.745 221.997 172.745 221.997C172.838 221.997 172.885 221.903 172.885 221.809C172.885 210.074 172.885 210.074 172.885 210.074C172.932 209.979 172.838 209.885 172.745 209.885Z" fill="#636466"/>
<path d="M176.753 221.997C179.083 221.997 179.083 221.997 179.083 221.997C179.176 221.997 179.223 221.903 179.223 221.809C179.223 210.074 179.223 210.074 179.223 210.074C179.223 209.979 179.13 209.885 179.083 209.885C176.753 209.885 176.753 209.885 176.753 209.885C176.66 209.885 176.613 209.979 176.613 210.074C176.613 221.809 176.613 221.809 176.613 221.809C176.613 221.903 176.706 221.997 176.753 221.997Z" fill="#636466"/>
<path d="M193.016 209.885C190.686 209.885 190.686 209.885 190.686 209.885C190.593 209.885 190.547 209.979 190.547 210.074C190.547 217.284 190.547 217.284 190.547 217.284C185.514 209.979 185.514 209.979 185.514 209.979C185.467 209.932 185.421 209.885 185.374 209.885C183.044 209.885 183.044 209.885 183.044 209.885C182.951 209.885 182.904 209.979 182.904 210.074C182.904 221.809 182.904 221.809 182.904 221.809C182.904 221.903 182.997 221.997 183.044 221.997C185.374 221.997 185.374 221.997 185.374 221.997C185.514 221.997 185.56 221.903 185.56 221.809C185.56 214.645 185.56 214.645 185.56 214.645C190.547 221.903 190.547 221.903 190.547 221.903C190.547 221.95 190.593 221.997 190.686 221.997C192.97 221.997 192.97 221.997 192.97 221.997C193.11 221.997 193.11 221.903 193.11 221.809C193.11 210.074 193.11 210.074 193.11 210.074C193.156 209.979 193.11 209.885 193.016 209.885Z" fill="#636466"/>
<path d="M201.963 214.739C201.357 214.598 201.357 214.598 201.357 214.598C200.006 214.362 199.214 214.174 199.214 213.42C199.214 212.76 199.866 212.383 200.938 212.383C202.056 212.383 203.035 212.713 203.967 213.231C204.014 213.278 204.06 213.278 204.107 213.278C204.153 213.231 204.2 213.231 204.2 213.184C205.225 211.11 205.225 211.11 205.225 211.11C205.272 211.11 205.272 211.016 205.272 210.969C205.272 210.922 205.225 210.875 205.179 210.875C203.454 209.885 202.196 209.697 200.845 209.697C198.189 209.697 196.371 211.252 196.371 213.561C196.371 215.588 197.49 216.766 199.866 217.143C200.425 217.237 200.425 217.237 200.425 217.237C201.823 217.52 202.616 217.661 202.616 218.462C202.616 219.311 201.637 219.546 200.845 219.546C199.587 219.546 198.468 219.169 197.443 218.462C197.396 218.462 197.303 218.462 197.303 218.462C197.21 218.462 197.21 218.51 197.163 218.557C196.045 220.583 196.045 220.583 196.045 220.583C195.952 220.677 195.998 220.772 196.092 220.819C197.257 221.761 198.981 222.28 200.845 222.28C204.247 222.28 205.458 220.159 205.458 218.227C205.458 216.247 204.34 215.163 201.963 214.739Z" fill="#636466"/>
<path d="M156.529 214.739C155.877 214.598 155.877 214.598 155.877 214.598C154.572 214.362 153.78 214.174 153.78 213.42C153.78 212.76 154.386 212.383 155.504 212.383C156.576 212.383 157.554 212.713 158.533 213.231C158.58 213.278 158.626 213.278 158.673 213.278C158.719 213.231 158.766 213.231 158.766 213.184C159.791 211.11 159.791 211.11 159.791 211.11C159.838 211.11 159.838 211.016 159.838 210.969C159.791 210.922 159.791 210.875 159.745 210.875C158.02 209.885 156.762 209.697 155.411 209.697C152.755 209.697 150.937 211.252 150.937 213.561C150.937 215.588 152.056 216.766 154.432 217.143C154.945 217.237 154.945 217.237 154.945 217.237C156.389 217.52 157.135 217.661 157.135 218.462C157.135 219.311 156.203 219.546 155.411 219.546C154.153 219.546 152.988 219.169 152.009 218.462C151.962 218.462 151.869 218.462 151.869 218.462C151.869 218.462 151.776 218.51 151.776 218.557C150.611 220.583 150.611 220.583 150.611 220.583C150.564 220.677 150.611 220.772 150.658 220.819C151.869 221.761 153.593 222.28 155.457 222.28C158.859 222.28 160.071 220.159 160.071 218.227C160.024 216.247 158.859 215.163 156.529 214.739Z" fill="#636466"/>
<path d="M217.76 209.885C215.43 209.885 215.43 209.885 215.43 209.885C215.337 209.885 215.29 209.979 215.29 210.074C215.29 216.954 215.29 216.954 215.29 216.954C215.29 218.557 214.498 219.405 213.1 219.405C211.702 219.405 210.91 218.557 210.91 216.954C210.91 210.074 210.91 210.074 210.91 210.074C210.91 209.979 210.817 209.885 210.77 209.885C208.44 209.885 208.44 209.885 208.44 209.885C208.301 209.885 208.254 209.979 208.254 210.074C208.254 217.096 208.254 217.096 208.254 217.096C208.254 220.348 210.025 222.186 213.1 222.186C216.176 222.186 217.947 220.348 217.947 217.096C217.947 210.074 217.947 210.074 217.947 210.074C217.9 209.979 217.853 209.885 217.76 209.885Z" fill="#636466"/>
<path d="M231.415 209.885C229.085 209.885 229.085 209.885 229.085 209.885C228.945 209.885 228.945 209.979 228.945 210.074C228.945 217.284 228.945 217.284 228.945 217.284C223.913 209.979 223.913 209.979 223.913 209.979C223.866 209.932 223.819 209.885 223.773 209.885C221.489 209.885 221.489 209.885 221.489 209.885C221.35 209.885 221.35 209.979 221.35 210.074C221.35 221.809 221.35 221.809 221.35 221.809C221.35 221.903 221.396 221.997 221.489 221.997C223.819 221.997 223.819 221.997 223.819 221.997C223.913 221.997 223.959 221.903 223.959 221.809C223.959 214.645 223.959 214.645 223.959 214.645C228.945 221.903 228.945 221.903 228.945 221.903C228.992 221.95 229.039 221.997 229.085 221.997C231.415 221.997 231.415 221.997 231.415 221.997C231.508 221.997 231.555 221.903 231.555 221.809C231.555 210.074 231.555 210.074 231.555 210.074C231.602 209.979 231.508 209.885 231.415 209.885Z" fill="#636466"/>
<path d="M245.908 214.881C245.861 214.786 245.815 214.739 245.768 214.739C240.409 214.739 240.409 214.739 240.409 214.739C240.316 214.739 240.269 214.786 240.269 214.928C240.269 216.907 240.269 216.907 240.269 216.907C240.269 217.049 240.362 217.096 240.409 217.096C243.345 217.096 243.345 217.096 243.345 217.096C242.879 218.51 241.621 219.499 240.269 219.499C238.545 219.499 237.147 217.897 237.147 215.918C237.147 214.032 238.405 212.477 240.129 212.383H240.176C240.316 212.383 240.316 212.383 240.316 212.383C241.248 212.383 242.133 212.807 242.739 213.561C242.786 213.655 242.879 213.655 242.972 213.608C244.65 212.147 244.65 212.147 244.65 212.147C244.696 212.1 244.696 212.053 244.743 212.006C244.743 211.959 244.696 211.912 244.65 211.865C243.531 210.451 241.993 209.649 240.316 209.649C237.147 209.649 234.584 212.43 234.584 215.87C234.584 219.311 237.147 222.138 240.316 222.138C243.065 222.138 245.442 220.018 245.954 217.049C246.048 216.672 246.094 216.247 246.094 215.87C246.001 215.588 245.954 215.258 245.908 214.881Z" fill="#636466"/>
<path d="M159.51 226.003C151.402 226.003 151.402 226.003 151.402 226.003C151.262 226.003 151.262 226.097 151.262 226.191C151.262 237.926 151.262 237.926 151.262 237.926C151.262 238.021 151.308 238.115 151.402 238.115C159.51 238.115 159.51 238.115 159.51 238.115C159.603 238.115 159.65 238.021 159.65 237.926C159.65 235.711 159.65 235.711 159.65 235.711C159.65 235.57 159.556 235.476 159.51 235.476C153.871 235.476 153.871 235.476 153.871 235.476C153.871 233.214 153.871 233.214 153.871 233.214C159.184 233.214 159.184 233.214 159.184 233.214C159.277 233.214 159.323 233.166 159.323 233.025C159.323 231.046 159.323 231.046 159.323 231.046C159.323 230.904 159.23 230.857 159.184 230.857C153.871 230.857 153.871 230.857 153.871 230.857C153.871 228.595 153.871 228.595 153.871 228.595C159.51 228.595 159.51 228.595 159.51 228.595C159.603 228.595 159.65 228.501 159.65 228.406C159.65 226.144 159.65 226.144 159.65 226.144C159.696 226.097 159.603 226.003 159.51 226.003Z" fill="#636466"/>
<path d="M185.233 230.857C179.874 230.857 179.874 230.857 179.874 230.857C179.781 230.857 179.734 230.951 179.734 231.046C179.734 233.025 179.734 233.025 179.734 233.025C179.734 233.166 179.827 233.261 179.874 233.261C182.81 233.261 182.81 233.261 182.81 233.261C182.344 234.627 181.085 235.617 179.734 235.617C178.01 235.617 176.612 234.062 176.612 232.082C176.612 230.15 177.87 228.595 179.594 228.501C179.641 228.501 179.641 228.501 179.641 228.501C179.781 228.501 179.781 228.501 179.781 228.501C180.713 228.501 181.598 228.925 182.204 229.679C182.297 229.773 182.344 229.773 182.437 229.726C184.114 228.265 184.114 228.265 184.114 228.265C184.161 228.218 184.208 228.171 184.208 228.124C184.208 228.077 184.161 228.029 184.161 227.982C183.043 226.568 181.458 225.767 179.781 225.767C176.612 225.767 174.049 228.595 174.049 232.035C174.049 235.476 176.612 238.256 179.781 238.256C182.53 238.256 184.907 236.135 185.419 233.214C185.512 232.837 185.559 232.412 185.559 232.035C185.559 231.658 185.512 231.328 185.466 230.951C185.326 230.904 185.279 230.857 185.233 230.857Z" fill="#636466"/>
<path d="M166.734 235.9C165.616 235.9 164.777 234.957 164.777 233.826C164.777 233.355 164.917 232.837 165.243 232.459C167.945 235.429 167.945 235.429 167.945 235.429C167.666 235.711 167.153 235.9 166.734 235.9ZM172.279 236.748C170.881 235.193 170.881 235.193 170.881 235.193C172.186 232.601 172.186 232.601 172.186 232.601C172.233 232.507 172.186 232.412 172.093 232.365C170.462 231.376 170.462 231.376 170.462 231.376C170.369 231.328 170.275 231.376 170.229 231.47C169.25 233.402 169.25 233.402 169.25 233.402C166.081 229.962 166.082 229.962 166.082 229.962C165.709 229.538 165.709 228.878 166.082 228.454C166.221 228.218 166.501 228.124 166.781 228.124C167.014 228.124 167.247 228.218 167.48 228.454C167.619 228.642 167.666 228.831 167.712 229.019C167.759 229.113 167.806 229.208 167.852 229.208C169.903 229.208 169.903 229.208 169.903 229.208C169.949 229.208 169.996 229.161 170.042 229.113C170.042 229.113 170.089 229.066 170.089 228.972C170.042 228.077 169.67 227.228 169.11 226.616C168.458 225.909 167.666 225.532 166.781 225.532C165.895 225.532 165.056 225.909 164.404 226.616C163.752 227.275 163.425 228.218 163.425 229.161C163.425 229.632 163.519 230.15 163.752 230.621C163.752 230.621 162.354 231.705 162.354 233.873C162.354 236.371 164.311 238.445 166.734 238.445C167.806 238.445 168.831 238.021 169.67 237.172C170.788 238.351 170.788 238.351 170.788 238.351C170.835 238.398 170.881 238.445 170.928 238.445C170.974 238.445 171.021 238.398 171.068 238.351C172.326 236.984 172.326 236.984 172.326 236.984C172.372 236.984 172.372 236.842 172.279 236.748Z" fill="#636466"/>
<path d="M98.3711 231.234C98.3711 236.041 102.006 240.047 106.479 240.047C109.602 240.047 112.165 237.973 113.376 235.758C102.379 223.694 102.379 223.694 102.379 223.694C100.282 224.872 98.3711 227.747 98.3711 231.234ZM109.462 223.034C111.932 221.809 113.702 219.075 113.702 215.87C113.702 211.487 110.487 208 106.479 208C102.472 208 99.2565 211.487 99.2565 215.87C99.2565 219.075 100.981 221.809 103.497 223.034C114.029 234.439 114.029 234.439 114.029 234.439C114.401 233.402 114.588 232.318 114.588 231.187C114.588 227.464 112.444 224.306 109.462 223.034Z" fill="#0097DC"/>
</g>
<defs>
<clipPath id="clip0">
<rect x="74" y="208" width="172" height="32" fill="white"/>
</clipPath>
</defs>
</svg>
