<svg width="375" height="812" viewBox="0 0 375 812" fill="none" xmlns="http://www.w3.org/2000/svg">
<rect width="375" height="812" fill="white"/>
<path d="M164.511 744.57H166.001V743.72H161.921V744.57H163.511V745.22C163.511 746.83 162.911 748.46 161.631 749.26L162.251 750.02C163.121 749.47 163.701 748.5 164.021 747.36C164.341 748.41 164.901 749.3 165.751 749.8L166.351 749.05C165.091 748.32 164.511 746.76 164.511 745.22V744.57ZM166.671 745.91H165.341V746.75H166.671V751.33H167.641V742.91H166.671V745.91ZM168.491 742.73V751.76H169.471V742.73H168.491ZM177.37 746.33C177.62 745.4 177.62 744.65 177.62 743.93V743.17H171.42V744H176.6C176.6 744.68 176.59 745.33 176.36 746.22L177.37 746.33ZM174.52 750.98C173.18 750.98 172.36 750.65 172.36 750.08C172.36 749.52 173.18 749.19 174.52 749.19C175.85 749.19 176.65 749.52 176.65 750.08C176.65 750.65 175.85 750.98 174.52 750.98ZM174.52 748.4C172.57 748.4 171.34 749.04 171.34 750.08C171.34 751.13 172.57 751.77 174.52 751.77C176.44 751.77 177.68 751.13 177.68 750.08C177.68 749.04 176.44 748.4 174.52 748.4ZM174.72 746.87V745.21H173.68V746.87H170.48V747.7H178.62V746.87H174.72ZM184.595 751.11C186.565 751.11 188.255 749.66 188.255 747.36C188.255 745.07 186.565 743.65 184.595 743.65C182.635 743.65 180.945 745.06 180.945 747.36C180.945 749.66 182.635 751.11 184.595 751.11ZM184.595 750.58C182.915 750.58 181.545 749.29 181.545 747.36C181.545 745.44 182.915 744.17 184.595 744.17C186.285 744.17 187.655 745.44 187.655 747.36C187.655 749.29 186.285 750.58 184.595 750.58ZM184.705 749.59C185.345 749.59 185.795 749.32 186.205 748.97L185.815 748.4C185.495 748.66 185.185 748.86 184.735 748.86C183.985 748.86 183.505 748.28 183.505 747.37C183.505 746.55 183.995 745.95 184.785 745.95C185.155 745.95 185.405 746.11 185.695 746.39L186.155 745.87C185.795 745.51 185.375 745.23 184.725 745.23C183.625 745.23 182.625 746.05 182.625 747.37C182.625 748.75 183.525 749.59 184.705 749.59ZM191.01 751H192.17V743.63H191.01V751ZM193.596 751H194.756V748.03H195.946L197.616 751H198.926L197.126 747.88C198.056 747.59 198.666 746.91 198.666 745.77C198.666 744.18 197.526 743.63 196.006 743.63H193.596V751ZM194.756 747.1V744.57H195.866C196.936 744.57 197.516 744.88 197.516 745.77C197.516 746.66 196.936 747.1 195.866 747.1H194.756ZM202.658 751.13C203.668 751.13 204.498 750.76 204.988 750.27V747.08H202.478V748.03H203.938V749.76C203.678 749.99 203.228 750.12 202.778 750.12C201.258 750.12 200.448 749.05 200.448 747.3C200.448 745.57 201.358 744.51 202.728 744.51C203.438 744.51 203.888 744.8 204.258 745.17L204.878 744.43C204.428 743.96 203.728 743.5 202.688 743.5C200.738 743.5 199.258 744.94 199.258 747.34C199.258 749.75 200.698 751.13 202.658 751.13ZM208.97 751.13C210.86 751.13 212.18 749.66 212.18 747.29C212.18 744.92 210.86 743.5 208.97 743.5C207.08 743.5 205.77 744.92 205.77 747.29C205.77 749.66 207.08 751.13 208.97 751.13ZM208.97 750.12C207.75 750.12 206.96 749.01 206.96 747.29C206.96 745.56 207.75 744.51 208.97 744.51C210.19 744.51 210.99 745.56 210.99 747.29C210.99 749.01 210.19 750.12 208.97 750.12Z" fill="#8E8E93"/>
<path d="M126.273 443H124.305V431.625H126.273V443ZM130.281 434.547L130.336 435.523C130.961 434.768 131.781 434.391 132.797 434.391C134.557 434.391 135.453 435.398 135.484 437.414V443H133.586V437.523C133.586 436.987 133.469 436.591 133.234 436.336C133.005 436.076 132.628 435.945 132.102 435.945C131.336 435.945 130.766 436.292 130.391 436.984V443H128.492V434.547H130.281ZM140.406 440.594L142.195 434.547H144.156L141.227 443H139.578L136.625 434.547H138.594L140.406 440.594ZM148.961 443.156C147.758 443.156 146.781 442.779 146.031 442.023C145.286 441.263 144.914 440.253 144.914 438.992V438.758C144.914 437.914 145.076 437.161 145.398 436.5C145.727 435.833 146.185 435.315 146.773 434.945C147.362 434.576 148.018 434.391 148.742 434.391C149.893 434.391 150.781 434.758 151.406 435.492C152.036 436.227 152.352 437.266 152.352 438.609V439.375H146.828C146.885 440.073 147.117 440.625 147.523 441.031C147.935 441.438 148.451 441.641 149.07 441.641C149.94 441.641 150.648 441.289 151.195 440.586L152.219 441.562C151.88 442.068 151.427 442.461 150.859 442.742C150.297 443.018 149.664 443.156 148.961 443.156ZM148.734 435.914C148.214 435.914 147.792 436.096 147.469 436.461C147.151 436.826 146.948 437.333 146.859 437.984H150.477V437.844C150.435 437.208 150.266 436.729 149.969 436.406C149.672 436.078 149.26 435.914 148.734 435.914ZM158.57 440.703C158.57 440.365 158.43 440.107 158.148 439.93C157.872 439.753 157.411 439.596 156.766 439.461C156.12 439.326 155.581 439.154 155.148 438.945C154.201 438.487 153.727 437.823 153.727 436.953C153.727 436.224 154.034 435.615 154.648 435.125C155.263 434.635 156.044 434.391 156.992 434.391C158.003 434.391 158.818 434.641 159.438 435.141C160.062 435.641 160.375 436.289 160.375 437.086H158.477C158.477 436.721 158.341 436.419 158.07 436.18C157.799 435.935 157.44 435.812 156.992 435.812C156.576 435.812 156.234 435.909 155.969 436.102C155.708 436.294 155.578 436.552 155.578 436.875C155.578 437.167 155.701 437.393 155.945 437.555C156.19 437.716 156.685 437.88 157.43 438.047C158.174 438.208 158.758 438.404 159.18 438.633C159.607 438.857 159.922 439.128 160.125 439.445C160.333 439.763 160.438 440.148 160.438 440.602C160.438 441.362 160.122 441.979 159.492 442.453C158.862 442.922 158.036 443.156 157.016 443.156C156.323 443.156 155.706 443.031 155.164 442.781C154.622 442.531 154.201 442.188 153.898 441.75C153.596 441.312 153.445 440.841 153.445 440.336H155.289C155.315 440.784 155.484 441.13 155.797 441.375C156.109 441.615 156.523 441.734 157.039 441.734C157.539 441.734 157.919 441.641 158.18 441.453C158.44 441.26 158.57 441.01 158.57 440.703ZM164.477 432.492V434.547H165.969V435.953H164.477V440.672C164.477 440.995 164.539 441.229 164.664 441.375C164.794 441.516 165.023 441.586 165.352 441.586C165.57 441.586 165.792 441.56 166.016 441.508V442.977C165.583 443.096 165.167 443.156 164.766 443.156C163.307 443.156 162.578 442.352 162.578 440.742V435.953H161.188V434.547H162.578V432.492H164.477ZM166.836 438.695C166.836 437.867 167 437.122 167.328 436.461C167.656 435.794 168.117 435.284 168.711 434.93C169.305 434.57 169.987 434.391 170.758 434.391C171.898 434.391 172.823 434.758 173.531 435.492C174.245 436.227 174.63 437.201 174.688 438.414L174.695 438.859C174.695 439.693 174.534 440.438 174.211 441.094C173.893 441.75 173.435 442.258 172.836 442.617C172.242 442.977 171.555 443.156 170.773 443.156C169.581 443.156 168.625 442.76 167.906 441.969C167.193 441.172 166.836 440.112 166.836 438.789V438.695ZM168.734 438.859C168.734 439.729 168.914 440.411 169.273 440.906C169.633 441.396 170.133 441.641 170.773 441.641C171.414 441.641 171.911 441.391 172.266 440.891C172.625 440.391 172.805 439.659 172.805 438.695C172.805 437.841 172.62 437.164 172.25 436.664C171.885 436.164 171.388 435.914 170.758 435.914C170.138 435.914 169.646 436.161 169.281 436.656C168.917 437.146 168.734 437.88 168.734 438.859ZM180.727 436.281C180.477 436.24 180.219 436.219 179.953 436.219C179.083 436.219 178.497 436.552 178.195 437.219V443H176.297V434.547H178.109L178.156 435.492C178.615 434.758 179.25 434.391 180.062 434.391C180.333 434.391 180.557 434.427 180.734 434.5L180.727 436.281ZM190.273 438.617H188.07V443H186.094V431.625H190.094C191.406 431.625 192.419 431.919 193.133 432.508C193.846 433.096 194.203 433.948 194.203 435.062C194.203 435.823 194.018 436.461 193.648 436.977C193.284 437.487 192.773 437.88 192.117 438.156L194.672 442.898V443H192.555L190.273 438.617ZM188.07 437.031H190.102C190.768 437.031 191.289 436.865 191.664 436.531C192.039 436.193 192.227 435.732 192.227 435.148C192.227 434.539 192.052 434.068 191.703 433.734C191.359 433.401 190.844 433.229 190.156 433.219H188.07V437.031ZM199.617 443.156C198.414 443.156 197.438 442.779 196.688 442.023C195.943 441.263 195.57 440.253 195.57 438.992V438.758C195.57 437.914 195.732 437.161 196.055 436.5C196.383 435.833 196.841 435.315 197.43 434.945C198.018 434.576 198.674 434.391 199.398 434.391C200.549 434.391 201.438 434.758 202.062 435.492C202.693 436.227 203.008 437.266 203.008 438.609V439.375H197.484C197.542 440.073 197.773 440.625 198.18 441.031C198.591 441.438 199.107 441.641 199.727 441.641C200.596 441.641 201.305 441.289 201.852 440.586L202.875 441.562C202.536 442.068 202.083 442.461 201.516 442.742C200.953 443.018 200.32 443.156 199.617 443.156ZM199.391 435.914C198.87 435.914 198.448 436.096 198.125 436.461C197.807 436.826 197.604 437.333 197.516 437.984H201.133V437.844C201.091 437.208 200.922 436.729 200.625 436.406C200.328 436.078 199.917 435.914 199.391 435.914ZM206.508 443H204.609V431H206.508V443ZM213.633 443C213.549 442.839 213.477 442.576 213.414 442.211C212.81 442.841 212.07 443.156 211.195 443.156C210.346 443.156 209.654 442.914 209.117 442.43C208.581 441.945 208.312 441.346 208.312 440.633C208.312 439.732 208.646 439.042 209.312 438.562C209.984 438.078 210.943 437.836 212.188 437.836H213.352V437.281C213.352 436.844 213.229 436.495 212.984 436.234C212.74 435.969 212.367 435.836 211.867 435.836C211.435 435.836 211.081 435.945 210.805 436.164C210.529 436.378 210.391 436.651 210.391 436.984H208.492C208.492 436.521 208.646 436.089 208.953 435.688C209.26 435.281 209.677 434.964 210.203 434.734C210.734 434.505 211.326 434.391 211.977 434.391C212.966 434.391 213.755 434.641 214.344 435.141C214.932 435.635 215.234 436.333 215.25 437.234V441.047C215.25 441.807 215.357 442.414 215.57 442.867V443H213.633ZM211.547 441.633C211.922 441.633 212.273 441.542 212.602 441.359C212.935 441.177 213.185 440.932 213.352 440.625V439.031H212.328C211.625 439.031 211.096 439.154 210.742 439.398C210.388 439.643 210.211 439.99 210.211 440.438C210.211 440.802 210.331 441.094 210.57 441.312C210.815 441.526 211.141 441.633 211.547 441.633ZM219.617 432.492V434.547H221.109V435.953H219.617V440.672C219.617 440.995 219.68 441.229 219.805 441.375C219.935 441.516 220.164 441.586 220.492 441.586C220.711 441.586 220.932 441.56 221.156 441.508V442.977C220.724 443.096 220.307 443.156 219.906 443.156C218.448 443.156 217.719 442.352 217.719 440.742V435.953H216.328V434.547H217.719V432.492H219.617ZM224.586 443H222.688V434.547H224.586V443ZM222.57 432.352C222.57 432.06 222.661 431.818 222.844 431.625C223.031 431.432 223.297 431.336 223.641 431.336C223.984 431.336 224.25 431.432 224.438 431.625C224.625 431.818 224.719 432.06 224.719 432.352C224.719 432.638 224.625 432.878 224.438 433.07C224.25 433.258 223.984 433.352 223.641 433.352C223.297 433.352 223.031 433.258 222.844 433.07C222.661 432.878 222.57 432.638 222.57 432.352ZM226.305 438.695C226.305 437.867 226.469 437.122 226.797 436.461C227.125 435.794 227.586 435.284 228.18 434.93C228.773 434.57 229.456 434.391 230.227 434.391C231.367 434.391 232.292 434.758 233 435.492C233.714 436.227 234.099 437.201 234.156 438.414L234.164 438.859C234.164 439.693 234.003 440.438 233.68 441.094C233.362 441.75 232.904 442.258 232.305 442.617C231.711 442.977 231.023 443.156 230.242 443.156C229.049 443.156 228.094 442.76 227.375 441.969C226.661 441.172 226.305 440.112 226.305 438.789V438.695ZM228.203 438.859C228.203 439.729 228.383 440.411 228.742 440.906C229.102 441.396 229.602 441.641 230.242 441.641C230.883 441.641 231.38 441.391 231.734 440.891C232.094 440.391 232.273 439.659 232.273 438.695C232.273 437.841 232.089 437.164 231.719 436.664C231.354 436.164 230.857 435.914 230.227 435.914C229.607 435.914 229.115 436.161 228.75 436.656C228.385 437.146 228.203 437.88 228.203 438.859ZM237.531 434.547L237.586 435.523C238.211 434.768 239.031 434.391 240.047 434.391C241.807 434.391 242.703 435.398 242.734 437.414V443H240.836V437.523C240.836 436.987 240.719 436.591 240.484 436.336C240.255 436.076 239.878 435.945 239.352 435.945C238.586 435.945 238.016 436.292 237.641 436.984V443H235.742V434.547H237.531ZM249.414 440.703C249.414 440.365 249.273 440.107 248.992 439.93C248.716 439.753 248.255 439.596 247.609 439.461C246.964 439.326 246.424 439.154 245.992 438.945C245.044 438.487 244.57 437.823 244.57 436.953C244.57 436.224 244.878 435.615 245.492 435.125C246.107 434.635 246.888 434.391 247.836 434.391C248.846 434.391 249.661 434.641 250.281 435.141C250.906 435.641 251.219 436.289 251.219 437.086H249.32C249.32 436.721 249.185 436.419 248.914 436.18C248.643 435.935 248.284 435.812 247.836 435.812C247.419 435.812 247.078 435.909 246.812 436.102C246.552 436.294 246.422 436.552 246.422 436.875C246.422 437.167 246.544 437.393 246.789 437.555C247.034 437.716 247.529 437.88 248.273 438.047C249.018 438.208 249.602 438.404 250.023 438.633C250.451 438.857 250.766 439.128 250.969 439.445C251.177 439.763 251.281 440.148 251.281 440.602C251.281 441.362 250.966 441.979 250.336 442.453C249.706 442.922 248.88 443.156 247.859 443.156C247.167 443.156 246.549 443.031 246.008 442.781C245.466 442.531 245.044 442.188 244.742 441.75C244.44 441.312 244.289 440.841 244.289 440.336H246.133C246.159 440.784 246.328 441.13 246.641 441.375C246.953 441.615 247.367 441.734 247.883 441.734C248.383 441.734 248.763 441.641 249.023 441.453C249.284 441.26 249.414 441.01 249.414 440.703Z" fill="#8E8E93"/>
<g clip-path="url(#clip0)">
<path d="M156.519 396.462C160.821 392.674 163.774 386.638 163.774 379.831C163.774 367.76 154.721 358 143.548 358C132.311 358 123.258 367.76 123.258 379.831C123.258 391.903 132.311 401.663 143.484 401.663C147.915 401.663 151.896 400.122 154.978 397.746C154.978 380.602 154.978 380.602 154.978 380.602C139.631 380.602 139.631 380.602 139.631 380.602C139.631 378.997 139.631 378.997 139.631 378.997C156.519 378.997 156.519 378.997 156.519 378.997V396.462Z" fill="#F15F22"/>
<path d="M102.839 371.805C102.839 359.348 102.839 359.348 102.839 359.348C70.4768 359.348 70.4768 359.348 70.4768 359.348C69.6421 359.348 69 360.055 69 360.889C69 398.709 69 398.709 69 398.709C69 399.544 69.6421 400.186 70.4768 400.186C102.839 400.186 102.839 400.186 102.839 400.186C102.839 387.729 102.839 387.729 102.839 387.729C85.9515 387.729 85.9515 387.729 85.9515 387.729C85.9515 385.996 85.9515 385.996 85.9515 385.996C102.839 385.996 102.839 385.996 102.839 385.996C102.839 373.539 102.839 373.539 102.839 373.539C85.9515 373.539 85.9515 373.539 85.9515 373.539C85.9515 371.805 85.9515 371.805 85.9515 371.805H102.839V371.805Z" fill="#80C342"/>
<path d="M205.061 360.568C201.85 360.568 201.85 360.568 201.85 360.568C201.722 360.568 201.657 360.697 201.657 360.825C201.657 367.182 201.657 367.182 201.657 367.182C195.236 367.182 195.236 367.182 195.236 367.182C195.236 360.825 195.236 360.825 195.236 360.825C195.236 360.697 195.108 360.568 195.044 360.568C191.833 360.568 191.833 360.568 191.833 360.568C191.705 360.568 191.641 360.697 191.641 360.825C191.641 376.814 191.641 376.814 191.641 376.814C191.641 376.942 191.769 377.07 191.833 377.07C195.044 377.07 195.044 377.07 195.044 377.07C195.172 377.07 195.236 376.942 195.236 376.814C195.236 370.457 195.236 370.457 195.236 370.457C201.657 370.457 201.657 370.457 201.657 370.457C201.657 376.814 201.657 376.814 201.657 376.814C201.657 376.942 201.786 377.07 201.85 377.07C205.061 377.07 205.061 377.07 205.061 377.07C205.189 377.07 205.253 376.942 205.253 376.814C205.253 360.825 205.253 360.825 205.253 360.825C205.317 360.697 205.189 360.568 205.061 360.568Z" fill="#636466"/>
<path d="M210.583 377.07C213.794 377.07 213.794 377.07 213.794 377.07C213.922 377.07 213.986 376.942 213.986 376.814C213.986 360.825 213.986 360.825 213.986 360.825C213.986 360.697 213.858 360.568 213.794 360.568C210.583 360.568 210.583 360.568 210.583 360.568C210.455 360.568 210.391 360.697 210.391 360.825C210.391 376.814 210.391 376.814 210.391 376.814C210.391 376.942 210.519 377.07 210.583 377.07Z" fill="#636466"/>
<path d="M232.994 360.568C229.784 360.568 229.784 360.568 229.784 360.568C229.655 360.568 229.591 360.697 229.591 360.825C229.591 370.649 229.591 370.649 229.591 370.649C222.656 360.697 222.656 360.697 222.656 360.697C222.592 360.633 222.528 360.568 222.464 360.568C219.253 360.568 219.253 360.568 219.253 360.568C219.125 360.568 219.061 360.697 219.061 360.825C219.061 376.814 219.061 376.814 219.061 376.814C219.061 376.942 219.189 377.07 219.253 377.07C222.464 377.07 222.464 377.07 222.464 377.07C222.656 377.07 222.721 376.942 222.721 376.814C222.721 367.054 222.721 367.054 222.721 367.054C229.591 376.942 229.591 376.942 229.591 376.942C229.591 377.006 229.655 377.07 229.784 377.07C232.93 377.07 232.93 377.07 232.93 377.07C233.123 377.07 233.123 376.942 233.123 376.814C233.123 360.825 233.123 360.825 233.123 360.825C233.187 360.697 233.123 360.568 232.994 360.568Z" fill="#636466"/>
<path d="M245.32 367.182C244.486 366.989 244.486 366.989 244.486 366.989C242.624 366.668 241.532 366.412 241.532 365.384C241.532 364.485 242.431 363.972 243.908 363.972C245.449 363.972 246.797 364.421 248.081 365.127C248.146 365.192 248.21 365.192 248.274 365.192C248.338 365.127 248.402 365.127 248.402 365.063C249.815 362.238 249.815 362.238 249.815 362.238C249.879 362.238 249.879 362.109 249.879 362.045C249.879 361.981 249.815 361.917 249.751 361.917C247.375 360.568 245.641 360.312 243.779 360.312C240.119 360.312 237.615 362.431 237.615 365.577C237.615 368.338 239.156 369.943 242.431 370.457C243.201 370.585 243.201 370.585 243.201 370.585C245.128 370.97 246.219 371.163 246.219 372.255C246.219 373.41 244.871 373.732 243.779 373.732C242.046 373.732 240.505 373.218 239.092 372.255C239.028 372.255 238.899 372.255 238.899 372.255C238.771 372.255 238.771 372.319 238.707 372.383C237.166 375.144 237.166 375.144 237.166 375.144C237.037 375.273 237.101 375.401 237.23 375.465C238.835 376.749 241.211 377.456 243.779 377.456C248.467 377.456 250.136 374.566 250.136 371.934C250.136 369.237 248.595 367.76 245.32 367.182Z" fill="#636466"/>
<path d="M182.716 367.182C181.818 366.989 181.818 366.989 181.818 366.989C180.02 366.668 178.928 366.412 178.928 365.384C178.928 364.485 179.763 363.972 181.304 363.972C182.781 363.972 184.129 364.421 185.477 365.127C185.542 365.192 185.606 365.192 185.67 365.192C185.734 365.127 185.799 365.127 185.799 365.063C187.211 362.238 187.211 362.238 187.211 362.238C187.275 362.238 187.275 362.109 187.275 362.045C187.211 361.981 187.211 361.917 187.147 361.917C184.771 360.568 183.038 360.312 181.175 360.312C177.515 360.312 175.011 362.431 175.011 365.577C175.011 368.338 176.552 369.943 179.827 370.457C180.533 370.585 180.533 370.585 180.533 370.585C182.524 370.97 183.551 371.163 183.551 372.255C183.551 373.41 182.267 373.732 181.175 373.732C179.442 373.732 177.836 373.218 176.488 372.255C176.424 372.255 176.295 372.255 176.295 372.255C176.295 372.255 176.167 372.319 176.167 372.383C174.562 375.144 174.562 375.144 174.562 375.144C174.498 375.273 174.562 375.401 174.626 375.465C176.295 376.749 178.671 377.456 181.24 377.456C185.927 377.456 187.596 374.566 187.596 371.934C187.532 369.237 185.927 367.76 182.716 367.182Z" fill="#636466"/>
<path d="M267.089 360.568C263.879 360.568 263.879 360.568 263.879 360.568C263.75 360.568 263.686 360.697 263.686 360.825C263.686 370.2 263.686 370.2 263.686 370.2C263.686 372.383 262.594 373.539 260.668 373.539C258.742 373.539 257.65 372.383 257.65 370.2C257.65 360.825 257.65 360.825 257.65 360.825C257.65 360.697 257.522 360.568 257.458 360.568C254.247 360.568 254.247 360.568 254.247 360.568C254.054 360.568 253.99 360.697 253.99 360.825C253.99 370.393 253.99 370.393 253.99 370.393C253.99 374.823 256.43 377.327 260.668 377.327C264.906 377.327 267.346 374.823 267.346 370.393C267.346 360.825 267.346 360.825 267.346 360.825C267.282 360.697 267.218 360.568 267.089 360.568Z" fill="#636466"/>
<path d="M285.903 360.568C282.692 360.568 282.692 360.568 282.692 360.568C282.499 360.568 282.499 360.697 282.499 360.825C282.499 370.649 282.499 370.649 282.499 370.649C275.565 360.697 275.565 360.697 275.565 360.697C275.501 360.633 275.436 360.568 275.372 360.568C272.226 360.568 272.226 360.568 272.226 360.568C272.033 360.568 272.033 360.697 272.033 360.825C272.033 376.814 272.033 376.814 272.033 376.814C272.033 376.942 272.097 377.07 272.226 377.07C275.436 377.07 275.436 377.07 275.436 377.07C275.565 377.07 275.629 376.942 275.629 376.814C275.629 367.054 275.629 367.054 275.629 367.054C282.499 376.942 282.499 376.942 282.499 376.942C282.564 377.006 282.628 377.07 282.692 377.07C285.903 377.07 285.903 377.07 285.903 377.07C286.031 377.07 286.095 376.942 286.095 376.814C286.095 360.825 286.095 360.825 286.095 360.825C286.159 360.697 286.031 360.568 285.903 360.568Z" fill="#636466"/>
<path d="M305.873 367.375C305.808 367.246 305.744 367.182 305.68 367.182C298.296 367.182 298.296 367.182 298.296 367.182C298.167 367.182 298.103 367.246 298.103 367.439C298.103 370.136 298.103 370.136 298.103 370.136C298.103 370.328 298.232 370.393 298.296 370.393C302.341 370.393 302.341 370.393 302.341 370.393C301.699 372.319 299.965 373.667 298.103 373.667C295.727 373.667 293.801 371.484 293.801 368.787C293.801 366.219 295.535 364.1 297.911 363.972H297.975C298.167 363.972 298.167 363.972 298.167 363.972C299.452 363.972 300.672 364.549 301.506 365.577C301.571 365.705 301.699 365.705 301.827 365.641C304.139 363.651 304.139 363.651 304.139 363.651C304.203 363.586 304.203 363.522 304.267 363.458C304.267 363.394 304.203 363.329 304.139 363.265C302.598 361.339 300.479 360.247 298.167 360.247C293.801 360.247 290.27 364.036 290.27 368.723C290.27 373.41 293.801 377.263 298.167 377.263C301.956 377.263 305.231 374.374 305.937 370.328C306.065 369.815 306.129 369.237 306.129 368.723C306.001 368.338 305.937 367.888 305.873 367.375Z" fill="#636466"/>
<path d="M186.826 382.528C175.654 382.528 175.654 382.528 175.654 382.528C175.461 382.528 175.461 382.657 175.461 382.785C175.461 398.773 175.461 398.773 175.461 398.773C175.461 398.902 175.525 399.03 175.654 399.03C186.826 399.03 186.826 399.03 186.826 399.03C186.955 399.03 187.019 398.902 187.019 398.773C187.019 395.756 187.019 395.756 187.019 395.756C187.019 395.563 186.89 395.435 186.826 395.435C179.057 395.435 179.057 395.435 179.057 395.435C179.057 392.352 179.057 392.352 179.057 392.352C186.377 392.352 186.377 392.352 186.377 392.352C186.505 392.352 186.569 392.288 186.569 392.096C186.569 389.399 186.569 389.399 186.569 389.399C186.569 389.206 186.441 389.142 186.377 389.142C179.057 389.142 179.057 389.142 179.057 389.142C179.057 386.06 179.057 386.06 179.057 386.06C186.826 386.06 186.826 386.06 186.826 386.06C186.955 386.06 187.019 385.931 187.019 385.803C187.019 382.721 187.019 382.721 187.019 382.721C187.083 382.657 186.955 382.528 186.826 382.528Z" fill="#636466"/>
<path d="M222.27 389.142C214.886 389.142 214.886 389.142 214.886 389.142C214.757 389.142 214.693 389.27 214.693 389.399C214.693 392.096 214.693 392.096 214.693 392.096C214.693 392.288 214.821 392.417 214.886 392.417C218.931 392.417 218.931 392.417 218.931 392.417C218.289 394.279 216.555 395.627 214.693 395.627C212.317 395.627 210.391 393.508 210.391 390.811C210.391 388.179 212.125 386.06 214.5 385.931C214.565 385.931 214.565 385.931 214.565 385.931C214.757 385.931 214.757 385.931 214.757 385.931C216.041 385.931 217.261 386.509 218.096 387.537C218.225 387.665 218.289 387.665 218.417 387.601C220.729 385.61 220.729 385.61 220.729 385.61C220.793 385.546 220.857 385.482 220.857 385.418C220.857 385.354 220.793 385.289 220.793 385.225C219.252 383.299 217.069 382.207 214.757 382.207C210.391 382.207 206.859 386.06 206.859 390.747C206.859 395.435 210.391 399.223 214.757 399.223C218.546 399.223 221.82 396.334 222.527 392.352C222.655 391.839 222.719 391.261 222.719 390.747C222.719 390.234 222.655 389.784 222.591 389.27C222.398 389.206 222.334 389.142 222.27 389.142Z" fill="#636466"/>
<path d="M196.778 396.012C195.237 396.012 194.081 394.728 194.081 393.187C194.081 392.545 194.274 391.839 194.723 391.325C198.447 395.37 198.447 395.37 198.447 395.37C198.062 395.756 197.356 396.012 196.778 396.012ZM204.419 397.168C202.493 395.049 202.493 395.049 202.493 395.049C204.291 391.518 204.291 391.518 204.291 391.518C204.355 391.389 204.291 391.261 204.162 391.197C201.915 389.848 201.915 389.848 201.915 389.848C201.786 389.784 201.658 389.848 201.594 389.977C200.245 392.609 200.245 392.609 200.245 392.609C195.879 387.922 195.879 387.922 195.879 387.922C195.365 387.344 195.365 386.445 195.879 385.867C196.072 385.546 196.457 385.418 196.842 385.418C197.163 385.418 197.484 385.546 197.805 385.867C197.998 386.124 198.062 386.381 198.126 386.638C198.191 386.766 198.255 386.895 198.319 386.895C201.144 386.895 201.144 386.895 201.144 386.895C201.208 386.895 201.273 386.83 201.337 386.766C201.337 386.766 201.401 386.702 201.401 386.574C201.337 385.354 200.823 384.198 200.053 383.363C199.154 382.4 198.062 381.886 196.842 381.886C195.622 381.886 194.466 382.4 193.567 383.363C192.668 384.262 192.219 385.546 192.219 386.83C192.219 387.472 192.347 388.179 192.668 388.821C192.668 388.821 190.742 390.298 190.742 393.251C190.742 396.655 193.439 399.48 196.778 399.48C198.255 399.48 199.667 398.902 200.823 397.746C202.364 399.351 202.364 399.351 202.364 399.351C202.428 399.416 202.493 399.48 202.557 399.48C202.621 399.48 202.685 399.416 202.749 399.351C204.483 397.489 204.483 397.489 204.483 397.489C204.547 397.489 204.547 397.297 204.419 397.168Z" fill="#636466"/>
<path d="M102.582 389.656C102.582 396.205 107.59 401.663 113.755 401.663C118.057 401.663 121.588 398.838 123.258 395.82C108.104 379.382 108.104 379.382 108.104 379.382C105.215 380.987 102.582 384.904 102.582 389.656ZM117.864 378.483C121.267 376.814 123.707 373.089 123.707 368.723C123.707 362.752 119.277 358 113.755 358C108.233 358 103.802 362.752 103.802 368.723C103.802 373.089 106.178 376.814 109.645 378.483C124.157 394.022 124.157 394.022 124.157 394.022C124.67 392.609 124.927 391.132 124.927 389.591C124.927 384.519 121.974 380.217 117.864 378.483Z" fill="#0097DC"/>
</g>
<defs>
<clipPath id="clip0">
<rect x="69" y="358" width="237" height="43.5988" fill="white"/>
</clipPath>
</defs>
</svg>
