<svg width="640" height="1136" viewBox="0 0 640 1136" fill="none" xmlns="http://www.w3.org/2000/svg">
<rect width="640" height="1136" fill="white"/>
<path d="M284.266 1047.35H286.501V1046.08H280.381V1047.35H282.766V1048.33C282.766 1050.74 281.866 1053.19 279.946 1054.39L280.876 1055.53C282.181 1054.7 283.051 1053.25 283.531 1051.54C284.011 1053.11 284.851 1054.45 286.126 1055.2L287.026 1054.07C285.136 1052.98 284.266 1050.64 284.266 1048.33V1047.35ZM287.506 1049.36H285.511V1050.62H287.506V1057.49H288.961V1044.86H287.506V1049.36ZM290.236 1044.59V1058.14H291.706V1044.59H290.236ZM303.805 1049.99C304.18 1048.6 304.18 1047.47 304.18 1046.39V1045.25H294.88V1046.5H302.65C302.65 1047.52 302.635 1048.49 302.29 1049.83L303.805 1049.99ZM299.53 1056.97C297.52 1056.97 296.29 1056.47 296.29 1055.62C296.29 1054.78 297.52 1054.28 299.53 1054.28C301.525 1054.28 302.725 1054.78 302.725 1055.62C302.725 1056.47 301.525 1056.97 299.53 1056.97ZM299.53 1053.1C296.605 1053.1 294.76 1054.06 294.76 1055.62C294.76 1057.2 296.605 1058.16 299.53 1058.16C302.41 1058.16 304.27 1057.2 304.27 1055.62C304.27 1054.06 302.41 1053.1 299.53 1053.1ZM299.83 1050.8V1048.31H298.27V1050.8H293.47V1052.05H305.68V1050.8H299.83ZM315.143 1057.17C318.098 1057.17 320.633 1054.99 320.633 1051.54C320.633 1048.1 318.098 1045.97 315.143 1045.97C312.203 1045.97 309.668 1048.09 309.668 1051.54C309.668 1054.99 312.203 1057.17 315.143 1057.17ZM315.143 1056.37C312.623 1056.37 310.568 1054.43 310.568 1051.54C310.568 1048.66 312.623 1046.75 315.143 1046.75C317.678 1046.75 319.733 1048.66 319.733 1051.54C319.733 1054.43 317.678 1056.37 315.143 1056.37ZM315.308 1054.88C316.268 1054.88 316.943 1054.48 317.558 1053.95L316.973 1053.1C316.493 1053.49 316.028 1053.79 315.353 1053.79C314.228 1053.79 313.508 1052.92 313.508 1051.55C313.508 1050.32 314.243 1049.43 315.428 1049.43C315.983 1049.43 316.358 1049.66 316.793 1050.08L317.483 1049.3C316.943 1048.76 316.313 1048.34 315.338 1048.34C313.688 1048.34 312.188 1049.57 312.188 1051.55C312.188 1053.62 313.538 1054.88 315.308 1054.88ZM325.265 1057H327.005V1045.94H325.265V1057ZM329.394 1057H331.134V1052.54H332.919L335.424 1057H337.389L334.689 1052.32C336.084 1051.88 336.999 1050.86 336.999 1049.15C336.999 1046.77 335.289 1045.94 333.009 1045.94H329.394V1057ZM331.134 1051.15V1047.35H332.799C334.404 1047.35 335.274 1047.82 335.274 1049.15C335.274 1050.49 334.404 1051.15 332.799 1051.15H331.134ZM343.238 1057.2C344.753 1057.2 345.998 1056.64 346.733 1055.9V1051.12H342.968V1052.54H345.158V1055.14C344.768 1055.48 344.093 1055.68 343.418 1055.68C341.138 1055.68 339.923 1054.07 339.923 1051.45C339.923 1048.85 341.288 1047.26 343.343 1047.26C344.408 1047.26 345.083 1047.7 345.638 1048.25L346.568 1047.14C345.893 1046.44 344.843 1045.75 343.283 1045.75C340.358 1045.75 338.138 1047.91 338.138 1051.51C338.138 1055.12 340.298 1057.2 343.238 1057.2ZM352.955 1057.2C355.79 1057.2 357.77 1054.99 357.77 1051.43C357.77 1047.88 355.79 1045.75 352.955 1045.75C350.12 1045.75 348.155 1047.88 348.155 1051.43C348.155 1054.99 350.12 1057.2 352.955 1057.2ZM352.955 1055.68C351.125 1055.68 349.94 1054.01 349.94 1051.43C349.94 1048.84 351.125 1047.26 352.955 1047.26C354.785 1047.26 355.985 1048.84 355.985 1051.43C355.985 1054.01 354.785 1055.68 352.955 1055.68Z" fill="#8E8E93"/>
<path d="M239.914 614.366H237.33V599.436H239.914V614.366ZM245.174 603.271L245.246 604.553C246.066 603.561 247.143 603.066 248.476 603.066C250.786 603.066 251.962 604.389 252.003 607.034V614.366H249.511V607.178C249.511 606.474 249.358 605.954 249.05 605.619C248.749 605.277 248.254 605.106 247.563 605.106C246.558 605.106 245.81 605.561 245.318 606.47V614.366H242.826V603.271H245.174ZM258.463 611.207L260.811 603.271H263.385L259.54 614.366H257.376L253.5 603.271H256.084L258.463 611.207ZM269.691 614.571C268.112 614.571 266.83 614.075 265.846 613.084C264.868 612.086 264.38 610.76 264.38 609.105V608.798C264.38 607.69 264.591 606.703 265.015 605.834C265.446 604.959 266.048 604.279 266.82 603.794C267.592 603.308 268.454 603.066 269.404 603.066C270.915 603.066 272.08 603.548 272.901 604.512C273.728 605.475 274.141 606.839 274.141 608.603V609.608H266.892C266.967 610.524 267.271 611.248 267.804 611.782C268.344 612.315 269.021 612.581 269.835 612.581C270.976 612.581 271.906 612.12 272.624 611.197L273.967 612.479C273.523 613.142 272.928 613.658 272.183 614.027C271.445 614.39 270.614 614.571 269.691 614.571ZM269.394 605.065C268.71 605.065 268.156 605.305 267.733 605.783C267.316 606.262 267.049 606.928 266.933 607.783H271.68V607.598C271.626 606.764 271.404 606.135 271.014 605.711C270.624 605.281 270.084 605.065 269.394 605.065ZM282.303 611.351C282.303 610.907 282.119 610.568 281.75 610.336C281.387 610.103 280.782 609.898 279.935 609.721C279.087 609.543 278.38 609.317 277.812 609.044C276.568 608.442 275.946 607.571 275.946 606.429C275.946 605.472 276.349 604.672 277.156 604.03C277.963 603.387 278.988 603.066 280.232 603.066C281.558 603.066 282.628 603.394 283.442 604.05C284.262 604.706 284.672 605.557 284.672 606.603H282.18C282.18 606.125 282.003 605.728 281.647 605.414C281.292 605.093 280.82 604.932 280.232 604.932C279.685 604.932 279.237 605.058 278.889 605.311C278.547 605.564 278.376 605.903 278.376 606.327C278.376 606.709 278.537 607.007 278.858 607.219C279.179 607.431 279.829 607.646 280.806 607.865C281.784 608.077 282.55 608.333 283.103 608.634C283.664 608.928 284.077 609.283 284.344 609.7C284.617 610.117 284.754 610.623 284.754 611.218C284.754 612.216 284.341 613.026 283.513 613.648C282.686 614.263 281.603 614.571 280.263 614.571C279.354 614.571 278.544 614.407 277.833 614.078C277.122 613.75 276.568 613.299 276.172 612.725C275.775 612.151 275.577 611.532 275.577 610.869H277.997C278.031 611.457 278.253 611.911 278.663 612.233C279.073 612.547 279.617 612.704 280.294 612.704C280.95 612.704 281.449 612.581 281.791 612.335C282.133 612.082 282.303 611.754 282.303 611.351ZM290.055 600.574V603.271H292.014V605.117H290.055V611.31C290.055 611.734 290.137 612.041 290.301 612.233C290.472 612.417 290.773 612.51 291.204 612.51C291.491 612.51 291.781 612.475 292.075 612.407V614.335C291.508 614.492 290.961 614.571 290.435 614.571C288.521 614.571 287.564 613.515 287.564 611.402V605.117H285.738V603.271H287.564V600.574H290.055ZM293.152 608.716C293.152 607.629 293.367 606.651 293.798 605.783C294.229 604.908 294.834 604.238 295.613 603.773C296.392 603.302 297.288 603.066 298.3 603.066C299.797 603.066 301.01 603.548 301.94 604.512C302.876 605.475 303.382 606.754 303.457 608.347L303.467 608.931C303.467 610.025 303.256 611.002 302.832 611.864C302.415 612.725 301.813 613.391 301.027 613.863C300.248 614.335 299.345 614.571 298.32 614.571C296.755 614.571 295.5 614.051 294.557 613.012C293.62 611.966 293.152 610.575 293.152 608.839V608.716ZM295.644 608.931C295.644 610.073 295.88 610.968 296.351 611.618C296.823 612.26 297.479 612.581 298.32 612.581C299.161 612.581 299.814 612.253 300.279 611.597C300.75 610.941 300.986 609.98 300.986 608.716C300.986 607.595 300.743 606.706 300.258 606.05C299.779 605.393 299.127 605.065 298.3 605.065C297.486 605.065 296.84 605.39 296.362 606.039C295.883 606.682 295.644 607.646 295.644 608.931ZM311.383 605.547C311.055 605.493 310.717 605.465 310.368 605.465C309.227 605.465 308.458 605.903 308.061 606.778V614.366H305.57V603.271H307.948L308.01 604.512C308.612 603.548 309.446 603.066 310.512 603.066C310.867 603.066 311.161 603.114 311.394 603.209L311.383 605.547ZM323.914 608.613H321.022V614.366H318.428V599.436H323.678C325.401 599.436 326.73 599.822 327.667 600.595C328.603 601.367 329.071 602.485 329.071 603.948C329.071 604.946 328.829 605.783 328.343 606.46C327.865 607.13 327.195 607.646 326.334 608.008L329.687 614.232V614.366H326.908L323.914 608.613ZM321.022 606.532H323.688C324.563 606.532 325.247 606.313 325.739 605.875C326.231 605.431 326.477 604.826 326.477 604.06C326.477 603.261 326.248 602.642 325.79 602.204C325.339 601.767 324.662 601.541 323.76 601.528H321.022V606.532ZM336.177 614.571C334.598 614.571 333.317 614.075 332.332 613.084C331.355 612.086 330.866 610.76 330.866 609.105V608.798C330.866 607.69 331.078 606.703 331.502 605.834C331.932 604.959 332.534 604.279 333.306 603.794C334.079 603.308 334.94 603.066 335.89 603.066C337.401 603.066 338.567 603.548 339.387 604.512C340.214 605.475 340.628 606.839 340.628 608.603V609.608H333.378C333.453 610.524 333.758 611.248 334.291 611.782C334.831 612.315 335.508 612.581 336.321 612.581C337.463 612.581 338.392 612.12 339.11 611.197L340.453 612.479C340.009 613.142 339.414 613.658 338.669 614.027C337.931 614.39 337.1 614.571 336.177 614.571ZM335.88 605.065C335.196 605.065 334.643 605.305 334.219 605.783C333.802 606.262 333.535 606.928 333.419 607.783H338.167V607.598C338.112 606.764 337.89 606.135 337.5 605.711C337.111 605.281 336.571 605.065 335.88 605.065ZM345.221 614.366H342.73V598.616H345.221V614.366ZM354.573 614.366C354.464 614.154 354.368 613.808 354.286 613.33C353.493 614.157 352.522 614.571 351.374 614.571C350.259 614.571 349.35 614.253 348.646 613.617C347.942 612.981 347.59 612.195 347.59 611.259C347.59 610.076 348.028 609.17 348.903 608.541C349.784 607.906 351.042 607.588 352.676 607.588H354.204V606.86C354.204 606.286 354.043 605.828 353.722 605.486C353.401 605.137 352.912 604.963 352.256 604.963C351.688 604.963 351.223 605.106 350.861 605.393C350.499 605.674 350.318 606.033 350.318 606.47H347.826C347.826 605.862 348.028 605.294 348.431 604.768C348.834 604.235 349.381 603.818 350.071 603.517C350.769 603.216 351.545 603.066 352.399 603.066C353.698 603.066 354.734 603.394 355.506 604.05C356.279 604.7 356.675 605.616 356.696 606.798V611.802C356.696 612.8 356.836 613.597 357.116 614.191V614.366H354.573ZM351.835 612.571C352.327 612.571 352.789 612.452 353.219 612.212C353.657 611.973 353.985 611.652 354.204 611.248V609.157H352.861C351.938 609.157 351.244 609.317 350.779 609.639C350.314 609.96 350.082 610.414 350.082 611.002C350.082 611.481 350.239 611.864 350.553 612.151C350.875 612.431 351.302 612.571 351.835 612.571ZM362.427 600.574V603.271H364.386V605.117H362.427V611.31C362.427 611.734 362.509 612.041 362.674 612.233C362.844 612.417 363.145 612.51 363.576 612.51C363.863 612.51 364.154 612.475 364.447 612.407V614.335C363.88 614.492 363.333 614.571 362.807 614.571C360.893 614.571 359.936 613.515 359.936 611.402V605.117H358.111V603.271H359.936V600.574H362.427ZM368.949 614.366H366.457V603.271H368.949V614.366ZM366.303 600.39C366.303 600.007 366.423 599.689 366.662 599.436C366.908 599.183 367.257 599.057 367.708 599.057C368.159 599.057 368.508 599.183 368.754 599.436C369 599.689 369.123 600.007 369.123 600.39C369.123 600.766 369 601.08 368.754 601.333C368.508 601.579 368.159 601.702 367.708 601.702C367.257 601.702 366.908 601.579 366.662 601.333C366.423 601.08 366.303 600.766 366.303 600.39ZM371.205 608.716C371.205 607.629 371.42 606.651 371.851 605.783C372.281 604.908 372.886 604.238 373.666 603.773C374.445 603.302 375.341 603.066 376.352 603.066C377.849 603.066 379.063 603.548 379.992 604.512C380.929 605.475 381.435 606.754 381.51 608.347L381.52 608.931C381.52 610.025 381.308 611.002 380.884 611.864C380.467 612.725 379.866 613.391 379.08 613.863C378.3 614.335 377.398 614.571 376.373 614.571C374.807 614.571 373.553 614.051 372.61 613.012C371.673 611.966 371.205 610.575 371.205 608.839V608.716ZM373.696 608.931C373.696 610.073 373.932 610.968 374.404 611.618C374.876 612.26 375.532 612.581 376.373 612.581C377.214 612.581 377.866 612.253 378.331 611.597C378.803 610.941 379.039 609.98 379.039 608.716C379.039 607.595 378.796 606.706 378.311 606.05C377.832 605.393 377.179 605.065 376.352 605.065C375.539 605.065 374.893 605.39 374.414 606.039C373.936 606.682 373.696 607.646 373.696 608.931ZM385.94 603.271L386.011 604.553C386.832 603.561 387.908 603.066 389.241 603.066C391.552 603.066 392.728 604.389 392.769 607.034V614.366H390.277V607.178C390.277 606.474 390.123 605.954 389.816 605.619C389.515 605.277 389.019 605.106 388.329 605.106C387.324 605.106 386.575 605.561 386.083 606.47V614.366H383.591V603.271H385.94ZM401.536 611.351C401.536 610.907 401.351 610.568 400.982 610.336C400.62 610.103 400.015 609.898 399.167 609.721C398.32 609.543 397.612 609.317 397.045 609.044C395.8 608.442 395.178 607.571 395.178 606.429C395.178 605.472 395.582 604.672 396.388 604.03C397.195 603.387 398.22 603.066 399.465 603.066C400.791 603.066 401.861 603.394 402.674 604.05C403.494 604.706 403.904 605.557 403.904 606.603H401.413C401.413 606.125 401.235 605.728 400.88 605.414C400.524 605.093 400.052 604.932 399.465 604.932C398.918 604.932 398.47 605.058 398.121 605.311C397.779 605.564 397.609 605.903 397.609 606.327C397.609 606.709 397.769 607.007 398.091 607.219C398.412 607.431 399.061 607.646 400.039 607.865C401.016 608.077 401.782 608.333 402.336 608.634C402.896 608.928 403.31 609.283 403.576 609.7C403.85 610.117 403.987 610.623 403.987 611.218C403.987 612.216 403.573 613.026 402.746 613.648C401.919 614.263 400.835 614.571 399.495 614.571C398.586 614.571 397.776 614.407 397.065 614.078C396.354 613.75 395.8 613.299 395.404 612.725C395.008 612.151 394.809 611.532 394.809 610.869H397.229C397.263 611.457 397.486 611.911 397.896 612.233C398.306 612.547 398.849 612.704 399.526 612.704C400.182 612.704 400.681 612.581 401.023 612.335C401.365 612.082 401.536 611.754 401.536 611.351Z" fill="#8E8E93"/>
<g clip-path="url(#clip0)">
<path d="M277.538 553.049C283.365 547.922 287.365 539.754 287.365 530.543C287.365 514.208 275.103 501 259.97 501C244.751 501 232.488 514.208 232.488 530.543C232.488 546.879 244.751 560.087 259.883 560.087C265.884 560.087 271.276 558.001 275.451 554.786C275.451 531.586 275.451 531.586 275.451 531.586C254.665 531.586 254.665 531.586 254.665 531.586C254.665 529.414 254.665 529.414 254.665 529.414C277.538 529.414 277.538 529.414 277.538 529.414V553.049Z" fill="#F15F22"/>
<path d="M204.832 519.682C204.832 502.825 204.832 502.825 204.832 502.825C161 502.825 161 502.825 161 502.825C159.87 502.825 159 503.781 159 504.91C159 556.09 159 556.09 159 556.09C159 557.219 159.87 558.088 161 558.088C204.832 558.088 204.832 558.088 204.832 558.088C204.832 541.231 204.832 541.231 204.832 541.231C181.96 541.231 181.96 541.231 181.96 541.231C181.96 538.885 181.96 538.885 181.96 538.885C204.832 538.885 204.832 538.885 204.832 538.885C204.832 522.028 204.832 522.028 204.832 522.028C181.96 522.028 181.96 522.028 181.96 522.028C181.96 519.682 181.96 519.682 181.96 519.682H204.832V519.682Z" fill="#80C342"/>
<path d="M343.286 504.476C338.937 504.476 338.937 504.476 338.937 504.476C338.763 504.476 338.676 504.649 338.676 504.823C338.676 513.426 338.676 513.426 338.676 513.426C329.98 513.426 329.98 513.426 329.98 513.426C329.98 504.823 329.98 504.823 329.98 504.823C329.98 504.649 329.806 504.476 329.719 504.476C325.37 504.476 325.37 504.476 325.37 504.476C325.196 504.476 325.109 504.649 325.109 504.823C325.109 526.46 325.109 526.46 325.109 526.46C325.109 526.633 325.283 526.807 325.37 526.807C329.719 526.807 329.719 526.807 329.719 526.807C329.893 526.807 329.98 526.633 329.98 526.46C329.98 517.857 329.98 517.857 329.98 517.857C338.676 517.857 338.676 517.857 338.676 517.857C338.676 526.46 338.676 526.46 338.676 526.46C338.676 526.633 338.85 526.807 338.937 526.807C343.286 526.807 343.286 526.807 343.286 526.807C343.46 526.807 343.547 526.633 343.547 526.46C343.547 504.823 343.547 504.823 343.547 504.823C343.634 504.649 343.46 504.476 343.286 504.476Z" fill="#636466"/>
<path d="M350.765 526.807C355.113 526.807 355.113 526.807 355.113 526.807C355.287 526.807 355.374 526.633 355.374 526.46C355.374 504.823 355.374 504.823 355.374 504.823C355.374 504.649 355.2 504.476 355.113 504.476C350.765 504.476 350.765 504.476 350.765 504.476C350.591 504.476 350.504 504.649 350.504 504.823C350.504 526.46 350.504 526.46 350.504 526.46C350.504 526.633 350.678 526.807 350.765 526.807Z" fill="#636466"/>
<path d="M381.118 504.476C376.77 504.476 376.77 504.476 376.77 504.476C376.596 504.476 376.509 504.649 376.509 504.823C376.509 518.118 376.509 518.118 376.509 518.118C367.116 504.649 367.116 504.649 367.116 504.649C367.029 504.563 366.942 504.476 366.855 504.476C362.507 504.476 362.507 504.476 362.507 504.476C362.333 504.476 362.246 504.649 362.246 504.823C362.246 526.46 362.246 526.46 362.246 526.46C362.246 526.633 362.42 526.807 362.507 526.807C366.855 526.807 366.855 526.807 366.855 526.807C367.116 526.807 367.203 526.633 367.203 526.46C367.203 513.252 367.203 513.252 367.203 513.252C376.509 526.633 376.509 526.633 376.509 526.633C376.509 526.72 376.596 526.807 376.77 526.807C381.031 526.807 381.031 526.807 381.031 526.807C381.292 526.807 381.292 526.633 381.292 526.46C381.292 504.823 381.292 504.823 381.292 504.823C381.379 504.649 381.292 504.476 381.118 504.476Z" fill="#636466"/>
<path d="M397.816 513.426C396.685 513.165 396.685 513.165 396.685 513.165C394.163 512.73 392.684 512.383 392.684 510.993C392.684 509.776 393.902 509.081 395.902 509.081C397.99 509.081 399.816 509.689 401.555 510.645C401.642 510.732 401.729 510.732 401.816 510.732C401.903 510.645 401.99 510.645 401.99 510.558C403.903 506.735 403.903 506.735 403.903 506.735C403.99 506.735 403.99 506.561 403.99 506.474C403.99 506.387 403.903 506.3 403.816 506.3C400.599 504.476 398.25 504.128 395.728 504.128C390.771 504.128 387.379 506.996 387.379 511.253C387.379 514.99 389.467 517.162 393.902 517.857C394.946 518.031 394.946 518.031 394.946 518.031C397.555 518.552 399.033 518.813 399.033 520.29C399.033 521.854 397.207 522.289 395.728 522.289C393.38 522.289 391.293 521.594 389.38 520.29C389.293 520.29 389.119 520.29 389.119 520.29C388.945 520.29 388.945 520.377 388.858 520.464C386.771 524.2 386.771 524.2 386.771 524.2C386.597 524.374 386.684 524.548 386.858 524.635C389.032 526.373 392.25 527.328 395.728 527.328C402.077 527.328 404.338 523.418 404.338 519.856C404.338 516.206 402.251 514.208 397.816 513.426Z" fill="#636466"/>
<path d="M313.02 513.426C311.803 513.165 311.803 513.165 311.803 513.165C309.368 512.73 307.889 512.383 307.889 510.993C307.889 509.776 309.02 509.081 311.107 509.081C313.107 509.081 314.934 509.689 316.76 510.645C316.847 510.732 316.934 510.732 317.021 510.732C317.108 510.645 317.195 510.645 317.195 510.558C319.108 506.735 319.108 506.735 319.108 506.735C319.195 506.735 319.195 506.561 319.195 506.474C319.108 506.387 319.108 506.3 319.021 506.3C315.803 504.476 313.455 504.128 310.933 504.128C305.976 504.128 302.584 506.996 302.584 511.253C302.584 514.99 304.672 517.162 309.107 517.857C310.064 518.031 310.064 518.031 310.064 518.031C312.76 518.552 314.151 518.813 314.151 520.29C314.151 521.854 312.412 522.289 310.933 522.289C308.585 522.289 306.411 521.594 304.585 520.29C304.498 520.29 304.324 520.29 304.324 520.29C304.324 520.29 304.15 520.377 304.15 520.464C301.975 524.2 301.975 524.2 301.975 524.2C301.889 524.374 301.975 524.548 302.062 524.635C304.324 526.373 307.541 527.328 311.02 527.328C317.369 527.328 319.63 523.418 319.63 519.856C319.543 516.206 317.369 514.208 313.02 513.426Z" fill="#636466"/>
<path d="M427.298 504.476C422.95 504.476 422.95 504.476 422.95 504.476C422.776 504.476 422.689 504.649 422.689 504.823C422.689 517.51 422.689 517.51 422.689 517.51C422.689 520.464 421.21 522.028 418.601 522.028C415.992 522.028 414.514 520.464 414.514 517.51C414.514 504.823 414.514 504.823 414.514 504.823C414.514 504.649 414.34 504.476 414.253 504.476C409.905 504.476 409.905 504.476 409.905 504.476C409.644 504.476 409.557 504.649 409.557 504.823C409.557 517.77 409.557 517.77 409.557 517.77C409.557 523.766 412.861 527.155 418.601 527.155C424.341 527.155 427.646 523.766 427.646 517.77C427.646 504.823 427.646 504.823 427.646 504.823C427.559 504.649 427.472 504.476 427.298 504.476Z" fill="#636466"/>
<path d="M452.779 504.476C448.431 504.476 448.431 504.476 448.431 504.476C448.17 504.476 448.17 504.649 448.17 504.823C448.17 518.118 448.17 518.118 448.17 518.118C438.777 504.649 438.777 504.649 438.777 504.649C438.69 504.563 438.603 504.476 438.516 504.476C434.255 504.476 434.255 504.476 434.255 504.476C433.994 504.476 433.994 504.649 433.994 504.823C433.994 526.46 433.994 526.46 433.994 526.46C433.994 526.633 434.081 526.807 434.255 526.807C438.603 526.807 438.603 526.807 438.603 526.807C438.777 526.807 438.864 526.633 438.864 526.46C438.864 513.252 438.864 513.252 438.864 513.252C448.17 526.633 448.17 526.633 448.17 526.633C448.257 526.72 448.344 526.807 448.431 526.807C452.779 526.807 452.779 526.807 452.779 526.807C452.953 526.807 453.04 526.633 453.04 526.46C453.04 504.823 453.04 504.823 453.04 504.823C453.127 504.649 452.953 504.476 452.779 504.476Z" fill="#636466"/>
<path d="M479.827 513.686C479.74 513.513 479.653 513.426 479.566 513.426C469.564 513.426 469.564 513.426 469.564 513.426C469.39 513.426 469.303 513.513 469.303 513.773C469.303 517.423 469.303 517.423 469.303 517.423C469.303 517.683 469.477 517.77 469.564 517.77C475.043 517.77 475.043 517.77 475.043 517.77C474.174 520.377 471.826 522.202 469.303 522.202C466.086 522.202 463.477 519.247 463.477 515.598C463.477 512.122 465.825 509.255 469.043 509.081H469.13C469.39 509.081 469.39 509.081 469.39 509.081C471.13 509.081 472.782 509.863 473.913 511.253C474 511.427 474.174 511.427 474.348 511.34C477.479 508.647 477.479 508.647 477.479 508.647C477.566 508.56 477.565 508.473 477.652 508.386C477.652 508.299 477.566 508.212 477.479 508.125C475.391 505.518 472.521 504.041 469.39 504.041C463.477 504.041 458.693 509.168 458.693 515.511C458.693 521.854 463.477 527.068 469.39 527.068C474.522 527.068 478.957 523.158 479.914 517.683C480.088 516.988 480.175 516.206 480.175 515.511C480.001 514.99 479.914 514.381 479.827 513.686Z" fill="#636466"/>
<path d="M318.587 534.193C303.454 534.193 303.454 534.193 303.454 534.193C303.193 534.193 303.193 534.367 303.193 534.54C303.193 556.177 303.193 556.177 303.193 556.177C303.193 556.351 303.28 556.524 303.454 556.524C318.587 556.524 318.587 556.524 318.587 556.524C318.761 556.524 318.848 556.351 318.848 556.177C318.848 552.093 318.848 552.093 318.848 552.093C318.848 551.832 318.674 551.658 318.587 551.658C308.064 551.658 308.064 551.658 308.064 551.658C308.064 547.487 308.064 547.487 308.064 547.487C317.978 547.487 317.978 547.487 317.978 547.487C318.152 547.487 318.239 547.401 318.239 547.14C318.239 543.49 318.239 543.49 318.239 543.49C318.239 543.23 318.065 543.143 317.978 543.143C308.064 543.143 308.064 543.143 308.064 543.143C308.064 538.972 308.064 538.972 308.064 538.972C318.587 538.972 318.587 538.972 318.587 538.972C318.761 538.972 318.848 538.798 318.848 538.624C318.848 534.454 318.848 534.454 318.848 534.454C318.935 534.367 318.761 534.193 318.587 534.193Z" fill="#636466"/>
<path d="M366.593 543.143C356.592 543.143 356.592 543.143 356.592 543.143C356.418 543.143 356.331 543.317 356.331 543.49C356.331 547.14 356.331 547.14 356.331 547.14C356.331 547.401 356.505 547.574 356.592 547.574C362.071 547.574 362.071 547.574 362.071 547.574C361.201 550.094 358.853 551.919 356.331 551.919C353.113 551.919 350.504 549.052 350.504 545.402C350.504 541.839 352.852 538.972 356.07 538.798C356.157 538.798 356.157 538.798 356.157 538.798C356.418 538.798 356.418 538.798 356.418 538.798C358.157 538.798 359.81 539.58 360.94 540.971C361.114 541.144 361.201 541.144 361.375 541.057C364.506 538.364 364.506 538.364 364.506 538.364C364.593 538.277 364.68 538.19 364.68 538.103C364.68 538.016 364.593 537.929 364.593 537.842C362.506 535.236 359.549 533.758 356.418 533.758C350.504 533.758 345.721 538.972 345.721 545.315C345.721 551.658 350.504 556.785 356.418 556.785C361.549 556.785 365.984 552.875 366.941 547.487C367.115 546.792 367.202 546.01 367.202 545.315C367.202 544.62 367.115 544.012 367.028 543.317C366.767 543.23 366.68 543.143 366.593 543.143Z" fill="#636466"/>
<path d="M332.068 552.44C329.98 552.44 328.415 550.702 328.415 548.617C328.415 547.748 328.676 546.792 329.285 546.097C334.329 551.571 334.329 551.571 334.329 551.571C333.807 552.093 332.85 552.44 332.068 552.44ZM342.417 554.004C339.808 551.137 339.808 551.137 339.808 551.137C342.243 546.358 342.243 546.358 342.243 546.358C342.33 546.184 342.243 546.01 342.069 545.923C339.025 544.099 339.025 544.099 339.025 544.099C338.851 544.012 338.677 544.099 338.59 544.272C336.764 547.835 336.764 547.835 336.764 547.835C330.85 541.492 330.85 541.492 330.85 541.492C330.154 540.71 330.154 539.493 330.85 538.711C331.111 538.277 331.633 538.103 332.155 538.103C332.589 538.103 333.024 538.277 333.459 538.711C333.72 539.059 333.807 539.406 333.894 539.754C333.981 539.928 334.068 540.102 334.155 540.102C337.981 540.102 337.981 540.102 337.981 540.102C338.068 540.102 338.155 540.015 338.242 539.928C338.242 539.928 338.329 539.841 338.329 539.667C338.242 538.016 337.547 536.452 336.503 535.323C335.285 534.019 333.807 533.324 332.155 533.324C330.502 533.324 328.937 534.019 327.719 535.323C326.502 536.539 325.893 538.277 325.893 540.015C325.893 540.884 326.067 541.839 326.502 542.708C326.502 542.708 323.893 544.707 323.893 548.704C323.893 553.309 327.545 557.133 332.068 557.133C334.068 557.133 335.981 556.351 337.547 554.786C339.634 556.959 339.634 556.959 339.634 556.959C339.721 557.046 339.808 557.133 339.895 557.133C339.982 557.133 340.069 557.046 340.156 556.959C342.504 554.439 342.504 554.439 342.504 554.439C342.591 554.439 342.591 554.178 342.417 554.004Z" fill="#636466"/>
<path d="M204.484 543.838C204.484 552.701 211.268 560.087 219.617 560.087C225.444 560.087 230.227 556.264 232.488 552.18C211.964 529.935 211.964 529.935 211.964 529.935C208.05 532.108 204.484 537.408 204.484 543.838ZM225.183 528.719C229.792 526.459 233.097 521.42 233.097 515.511C233.097 507.43 227.096 501 219.617 501C212.138 501 206.137 507.43 206.137 515.511C206.137 521.42 209.355 526.459 214.051 528.719C233.706 549.747 233.706 549.747 233.706 549.747C234.401 547.835 234.749 545.837 234.749 543.751C234.749 536.887 230.749 531.065 225.183 528.719Z" fill="#0097DC"/>
</g>
<defs>
<clipPath id="clip0">
<rect x="159" y="501" width="321" height="59" fill="white"/>
</clipPath>
</defs>
</svg>
