<svg width="750" height="1334" viewBox="0 0 750 1334" fill="none" xmlns="http://www.w3.org/2000/svg">
<rect width="750" height="1334" fill="white"/>
<path d="M331.529 1229.83H334.211V1228.3H326.867V1229.83H329.729V1231C329.729 1233.9 328.649 1236.83 326.345 1238.27L327.461 1239.64C329.027 1238.65 330.071 1236.91 330.647 1234.85C331.223 1236.74 332.231 1238.35 333.761 1239.25L334.841 1237.9C332.573 1236.58 331.529 1233.77 331.529 1231V1229.83ZM335.417 1232.24H333.023V1233.76H335.417V1242H337.163V1226.84H335.417V1232.24ZM338.693 1226.52V1242.77H340.457V1226.52H338.693ZM355.075 1233C355.525 1231.33 355.525 1229.98 355.525 1228.68V1227.31H344.365V1228.81H353.689C353.689 1230.03 353.671 1231.2 353.257 1232.8L355.075 1233ZM349.945 1241.37C347.533 1241.37 346.057 1240.78 346.057 1239.75C346.057 1238.74 347.533 1238.15 349.945 1238.15C352.339 1238.15 353.779 1238.74 353.779 1239.75C353.779 1240.78 352.339 1241.37 349.945 1241.37ZM349.945 1236.73C346.435 1236.73 344.221 1237.88 344.221 1239.75C344.221 1241.64 346.435 1242.79 349.945 1242.79C353.401 1242.79 355.633 1241.64 355.633 1239.75C355.633 1237.88 353.401 1236.73 349.945 1236.73ZM350.305 1233.97V1230.98H348.433V1233.97H342.673V1235.47H357.325V1233.97H350.305ZM368.881 1241.6C372.427 1241.6 375.469 1238.99 375.469 1234.85C375.469 1230.73 372.427 1228.18 368.881 1228.18C365.353 1228.18 362.311 1230.71 362.311 1234.85C362.311 1238.99 365.353 1241.6 368.881 1241.6ZM368.881 1240.65C365.857 1240.65 363.391 1238.33 363.391 1234.85C363.391 1231.4 365.857 1229.11 368.881 1229.11C371.923 1229.11 374.389 1231.4 374.389 1234.85C374.389 1238.33 371.923 1240.65 368.881 1240.65ZM369.079 1238.87C370.231 1238.87 371.041 1238.38 371.779 1237.75L371.077 1236.73C370.501 1237.19 369.943 1237.55 369.133 1237.55C367.783 1237.55 366.919 1236.51 366.919 1234.87C366.919 1233.4 367.801 1232.32 369.223 1232.32C369.889 1232.32 370.339 1232.6 370.861 1233.11L371.689 1232.17C371.041 1231.52 370.285 1231.02 369.115 1231.02C367.135 1231.02 365.335 1232.5 365.335 1234.87C365.335 1237.36 366.955 1238.87 369.079 1238.87ZM381.227 1241.41H383.315V1228.14H381.227V1241.41ZM386.282 1241.41H388.37V1236.06H390.512L393.518 1241.41H395.876L392.636 1235.79C394.31 1235.27 395.408 1234.04 395.408 1231.99C395.408 1229.13 393.356 1228.14 390.62 1228.14H386.282V1241.41ZM388.37 1234.39V1229.83H390.368C392.294 1229.83 393.338 1230.39 393.338 1231.99C393.338 1233.59 392.294 1234.39 390.368 1234.39H388.37ZM402.995 1241.64C404.813 1241.64 406.307 1240.97 407.189 1240.09V1234.35H402.671V1236.06H405.299V1239.17C404.831 1239.59 404.021 1239.82 403.211 1239.82C400.475 1239.82 399.017 1237.9 399.017 1234.75C399.017 1231.63 400.655 1229.72 403.121 1229.72C404.399 1229.72 405.209 1230.25 405.875 1230.91L406.991 1229.58C406.181 1228.73 404.921 1227.91 403.049 1227.91C399.539 1227.91 396.875 1230.5 396.875 1234.82C396.875 1239.16 399.467 1241.64 402.995 1241.64ZM414.756 1241.64C418.158 1241.64 420.534 1238.99 420.534 1234.73C420.534 1230.46 418.158 1227.91 414.756 1227.91C411.354 1227.91 408.996 1230.46 408.996 1234.73C408.996 1238.99 411.354 1241.64 414.756 1241.64ZM414.756 1239.82C412.56 1239.82 411.138 1237.82 411.138 1234.73C411.138 1231.61 412.56 1229.72 414.756 1229.72C416.952 1229.72 418.392 1231.61 418.392 1234.73C418.392 1237.82 416.952 1239.82 414.756 1239.82Z" fill="#8E8E93"/>
<path d="M282.175 732.472H279.222V715.409H282.175V732.472ZM288.187 719.792L288.269 721.257C289.206 720.124 290.437 719.558 291.96 719.558C294.601 719.558 295.944 721.07 295.991 724.093V732.472H293.144V724.257C293.144 723.452 292.968 722.859 292.616 722.476C292.272 722.085 291.706 721.89 290.917 721.89C289.769 721.89 288.913 722.409 288.351 723.448V732.472H285.503V719.792H288.187ZM303.374 728.862L306.058 719.792H308.999L304.605 732.472H302.132L297.702 719.792H300.655L303.374 728.862ZM316.206 732.706C314.401 732.706 312.937 732.14 311.812 731.007C310.694 729.866 310.136 728.351 310.136 726.46V726.109C310.136 724.843 310.378 723.714 310.862 722.722C311.355 721.722 312.042 720.945 312.925 720.39C313.808 719.835 314.792 719.558 315.878 719.558C317.605 719.558 318.937 720.109 319.874 721.21C320.819 722.312 321.292 723.87 321.292 725.886V727.034H313.007C313.093 728.081 313.44 728.909 314.05 729.519C314.667 730.128 315.44 730.433 316.37 730.433C317.675 730.433 318.737 729.905 319.558 728.851L321.093 730.316C320.585 731.073 319.905 731.663 319.054 732.085C318.21 732.499 317.261 732.706 316.206 732.706ZM315.866 721.843C315.085 721.843 314.452 722.116 313.968 722.663C313.491 723.21 313.187 723.972 313.054 724.948H318.48V724.737C318.417 723.784 318.163 723.066 317.718 722.581C317.272 722.089 316.655 721.843 315.866 721.843ZM330.62 729.027C330.62 728.519 330.409 728.132 329.987 727.866C329.573 727.601 328.882 727.366 327.913 727.163C326.944 726.96 326.136 726.702 325.487 726.39C324.065 725.702 323.355 724.706 323.355 723.402C323.355 722.308 323.815 721.394 324.737 720.659C325.659 719.925 326.831 719.558 328.253 719.558C329.769 719.558 330.991 719.933 331.921 720.683C332.858 721.433 333.327 722.405 333.327 723.601H330.48C330.48 723.054 330.276 722.601 329.87 722.241C329.464 721.874 328.925 721.691 328.253 721.691C327.628 721.691 327.116 721.835 326.718 722.124C326.327 722.413 326.132 722.8 326.132 723.284C326.132 723.722 326.315 724.062 326.683 724.304C327.05 724.546 327.792 724.792 328.909 725.042C330.026 725.284 330.901 725.577 331.534 725.921C332.175 726.257 332.647 726.663 332.952 727.14C333.265 727.616 333.421 728.195 333.421 728.874C333.421 730.015 332.948 730.941 332.003 731.652C331.058 732.355 329.819 732.706 328.288 732.706C327.249 732.706 326.323 732.519 325.511 732.144C324.698 731.769 324.065 731.253 323.612 730.597C323.159 729.941 322.933 729.234 322.933 728.476H325.698C325.737 729.148 325.991 729.667 326.46 730.034C326.929 730.394 327.55 730.573 328.323 730.573C329.073 730.573 329.644 730.433 330.034 730.152C330.425 729.862 330.62 729.487 330.62 729.027ZM339.48 716.71V719.792H341.718V721.902H339.48V728.98C339.48 729.464 339.573 729.816 339.761 730.034C339.956 730.245 340.3 730.351 340.792 730.351C341.12 730.351 341.452 730.312 341.788 730.234V732.437C341.14 732.616 340.515 732.706 339.913 732.706C337.726 732.706 336.632 731.499 336.632 729.085V721.902H334.546V719.792H336.632V716.71H339.48ZM343.019 726.015C343.019 724.773 343.265 723.655 343.757 722.663C344.249 721.663 344.94 720.898 345.831 720.366C346.722 719.827 347.745 719.558 348.901 719.558C350.612 719.558 351.999 720.109 353.062 721.21C354.132 722.312 354.71 723.773 354.796 725.593L354.808 726.261C354.808 727.511 354.565 728.628 354.081 729.612C353.605 730.597 352.917 731.359 352.019 731.898C351.128 732.437 350.097 732.706 348.925 732.706C347.136 732.706 345.702 732.112 344.624 730.925C343.554 729.73 343.019 728.14 343.019 726.155V726.015ZM345.866 726.261C345.866 727.566 346.136 728.589 346.675 729.331C347.214 730.066 347.964 730.433 348.925 730.433C349.886 730.433 350.632 730.058 351.163 729.308C351.702 728.558 351.972 727.46 351.972 726.015C351.972 724.734 351.694 723.718 351.14 722.968C350.593 722.218 349.847 721.843 348.901 721.843C347.972 721.843 347.233 722.214 346.687 722.956C346.14 723.691 345.866 724.792 345.866 726.261ZM363.855 722.394C363.48 722.331 363.093 722.3 362.694 722.3C361.39 722.3 360.511 722.8 360.058 723.8V732.472H357.21V719.792H359.929L359.999 721.21C360.687 720.109 361.64 719.558 362.858 719.558C363.265 719.558 363.601 719.612 363.866 719.722L363.855 722.394ZM378.175 725.898H374.87V732.472H371.905V715.409H377.905C379.874 715.409 381.394 715.851 382.464 716.734C383.534 717.616 384.069 718.894 384.069 720.566C384.069 721.706 383.792 722.663 383.237 723.437C382.69 724.202 381.925 724.792 380.94 725.206L384.772 732.32V732.472H381.597L378.175 725.898ZM374.87 723.519H377.917C378.917 723.519 379.698 723.269 380.261 722.769C380.823 722.261 381.105 721.57 381.105 720.695C381.105 719.78 380.843 719.073 380.319 718.573C379.804 718.073 379.03 717.816 377.999 717.8H374.87V723.519ZM392.19 732.706C390.386 732.706 388.921 732.14 387.796 731.007C386.679 729.866 386.12 728.351 386.12 726.46V726.109C386.12 724.843 386.362 723.714 386.847 722.722C387.339 721.722 388.026 720.945 388.909 720.39C389.792 719.835 390.776 719.558 391.862 719.558C393.589 719.558 394.921 720.109 395.858 721.21C396.804 722.312 397.276 723.87 397.276 725.886V727.034H388.991C389.077 728.081 389.425 728.909 390.034 729.519C390.651 730.128 391.425 730.433 392.355 730.433C393.659 730.433 394.722 729.905 395.542 728.851L397.077 730.316C396.569 731.073 395.89 731.663 395.038 732.085C394.194 732.499 393.245 732.706 392.19 732.706ZM391.851 721.843C391.069 721.843 390.437 722.116 389.952 722.663C389.476 723.21 389.171 723.972 389.038 724.948H394.464V724.737C394.401 723.784 394.147 723.066 393.702 722.581C393.257 722.089 392.64 721.843 391.851 721.843ZM402.526 732.472H399.679V714.472H402.526V732.472ZM413.214 732.472C413.089 732.23 412.98 731.835 412.886 731.288C411.98 732.234 410.87 732.706 409.558 732.706C408.284 732.706 407.245 732.343 406.44 731.616C405.636 730.89 405.233 729.991 405.233 728.921C405.233 727.57 405.733 726.534 406.733 725.816C407.741 725.089 409.179 724.726 411.046 724.726H412.792V723.894C412.792 723.237 412.608 722.714 412.241 722.323C411.874 721.925 411.315 721.726 410.565 721.726C409.917 721.726 409.386 721.89 408.972 722.218C408.558 722.538 408.351 722.948 408.351 723.448H405.503C405.503 722.753 405.733 722.105 406.194 721.503C406.655 720.894 407.28 720.417 408.069 720.073C408.866 719.73 409.753 719.558 410.73 719.558C412.214 719.558 413.397 719.933 414.28 720.683C415.163 721.425 415.616 722.472 415.64 723.823V729.542C415.64 730.683 415.8 731.593 416.12 732.273V732.472H413.214ZM410.085 730.421C410.647 730.421 411.175 730.284 411.667 730.011C412.167 729.737 412.542 729.37 412.792 728.909V726.519H411.257C410.202 726.519 409.409 726.702 408.878 727.07C408.347 727.437 408.081 727.956 408.081 728.628C408.081 729.175 408.261 729.612 408.62 729.941C408.987 730.261 409.476 730.421 410.085 730.421ZM422.19 716.71V719.792H424.429V721.902H422.19V728.98C422.19 729.464 422.284 729.816 422.472 730.034C422.667 730.245 423.011 730.351 423.503 730.351C423.831 730.351 424.163 730.312 424.499 730.234V732.437C423.851 732.616 423.226 732.706 422.624 732.706C420.437 732.706 419.343 731.499 419.343 729.085V721.902H417.257V719.792H419.343V716.71H422.19ZM429.644 732.472H426.796V719.792H429.644V732.472ZM426.62 716.499C426.62 716.062 426.757 715.698 427.03 715.409C427.312 715.12 427.71 714.976 428.226 714.976C428.741 714.976 429.14 715.12 429.421 715.409C429.702 715.698 429.843 716.062 429.843 716.499C429.843 716.929 429.702 717.288 429.421 717.577C429.14 717.859 428.741 717.999 428.226 717.999C427.71 717.999 427.312 717.859 427.03 717.577C426.757 717.288 426.62 716.929 426.62 716.499ZM432.222 726.015C432.222 724.773 432.468 723.655 432.96 722.663C433.452 721.663 434.144 720.898 435.034 720.366C435.925 719.827 436.948 719.558 438.105 719.558C439.815 719.558 441.202 720.109 442.265 721.21C443.335 722.312 443.913 723.773 443.999 725.593L444.011 726.261C444.011 727.511 443.769 728.628 443.284 729.612C442.808 730.597 442.12 731.359 441.222 731.898C440.331 732.437 439.3 732.706 438.128 732.706C436.339 732.706 434.905 732.112 433.827 730.925C432.757 729.73 432.222 728.14 432.222 726.155V726.015ZM435.069 726.261C435.069 727.566 435.339 728.589 435.878 729.331C436.417 730.066 437.167 730.433 438.128 730.433C439.089 730.433 439.835 730.058 440.366 729.308C440.905 728.558 441.175 727.46 441.175 726.015C441.175 724.734 440.897 723.718 440.343 722.968C439.796 722.218 439.05 721.843 438.105 721.843C437.175 721.843 436.437 722.214 435.89 722.956C435.343 723.691 435.069 724.792 435.069 726.261ZM449.062 719.792L449.144 721.257C450.081 720.124 451.312 719.558 452.835 719.558C455.476 719.558 456.819 721.07 456.866 724.093V732.472H454.019V724.257C454.019 723.452 453.843 722.859 453.491 722.476C453.147 722.085 452.581 721.89 451.792 721.89C450.644 721.89 449.788 722.409 449.226 723.448V732.472H446.378V719.792H449.062ZM466.886 729.027C466.886 728.519 466.675 728.132 466.253 727.866C465.839 727.601 465.147 727.366 464.179 727.163C463.21 726.96 462.401 726.702 461.753 726.39C460.331 725.702 459.62 724.706 459.62 723.402C459.62 722.308 460.081 721.394 461.003 720.659C461.925 719.925 463.097 719.558 464.519 719.558C466.034 719.558 467.257 719.933 468.187 720.683C469.124 721.433 469.593 722.405 469.593 723.601H466.745C466.745 723.054 466.542 722.601 466.136 722.241C465.73 721.874 465.19 721.691 464.519 721.691C463.894 721.691 463.382 721.835 462.983 722.124C462.593 722.413 462.397 722.8 462.397 723.284C462.397 723.722 462.581 724.062 462.948 724.304C463.315 724.546 464.058 724.792 465.175 725.042C466.292 725.284 467.167 725.577 467.8 725.921C468.44 726.257 468.913 726.663 469.218 727.14C469.53 727.616 469.687 728.195 469.687 728.874C469.687 730.015 469.214 730.941 468.269 731.652C467.323 732.355 466.085 732.706 464.554 732.706C463.515 732.706 462.589 732.519 461.776 732.144C460.964 731.769 460.331 731.253 459.878 730.597C459.425 729.941 459.198 729.234 459.198 728.476H461.964C462.003 729.148 462.257 729.667 462.726 730.034C463.194 730.394 463.815 730.573 464.589 730.573C465.339 730.573 465.909 730.433 466.3 730.152C466.69 729.862 466.886 729.487 466.886 729.027Z" fill="#8E8E93"/>
<g clip-path="url(#clip0)">
<path d="M322.602 658.399C329.809 652.056 334.756 641.95 334.756 630.554C334.756 610.342 319.591 594 300.875 594C282.053 594 266.887 610.342 266.887 630.554C266.887 650.766 282.053 667.108 300.768 667.108C308.189 667.108 314.858 664.527 320.021 660.549C320.021 631.844 320.021 631.844 320.021 631.844C294.314 631.844 294.314 631.844 294.314 631.844C294.314 629.156 294.314 629.156 294.314 629.156C322.602 629.156 322.602 629.156 322.602 629.156V658.399Z" fill="#F15F22"/>
<path d="M232.684 617.115C232.684 596.258 232.684 596.258 232.684 596.258C178.474 596.258 178.474 596.258 178.474 596.258C177.076 596.258 176 597.44 176 598.838C176 662.162 176 662.162 176 662.162C176 663.56 177.076 664.635 178.474 664.635C232.684 664.635 232.684 664.635 232.684 664.635C232.684 643.778 232.684 643.778 232.684 643.778C204.396 643.778 204.396 643.778 204.396 643.778C204.396 640.875 204.396 640.875 204.396 640.875C232.684 640.875 232.684 640.875 232.684 640.875C232.684 620.018 232.684 620.018 232.684 620.018C204.396 620.018 204.396 620.018 204.396 620.018C204.396 617.115 204.396 617.115 204.396 617.115H232.684V617.115Z" fill="#80C342"/>
<path d="M403.917 598.3C398.539 598.3 398.539 598.3 398.539 598.3C398.324 598.3 398.217 598.515 398.217 598.73C398.217 609.374 398.217 609.374 398.217 609.374C387.461 609.374 387.461 609.374 387.461 609.374C387.461 598.73 387.461 598.73 387.461 598.73C387.461 598.515 387.246 598.3 387.138 598.3C381.76 598.3 381.76 598.3 381.76 598.3C381.545 598.3 381.438 598.515 381.438 598.73C381.438 625.501 381.438 625.501 381.438 625.501C381.438 625.716 381.653 625.931 381.76 625.931C387.138 625.931 387.138 625.931 387.138 625.931C387.353 625.931 387.461 625.716 387.461 625.501C387.461 614.857 387.461 614.857 387.461 614.857C398.217 614.857 398.217 614.857 398.217 614.857C398.217 625.501 398.217 625.501 398.217 625.501C398.217 625.716 398.432 625.931 398.539 625.931C403.917 625.931 403.917 625.931 403.917 625.931C404.132 625.931 404.24 625.716 404.24 625.501C404.24 598.73 404.24 598.73 404.24 598.73C404.348 598.515 404.132 598.3 403.917 598.3Z" fill="#636466"/>
<path d="M413.168 625.931C418.546 625.931 418.546 625.931 418.546 625.931C418.761 625.931 418.869 625.716 418.869 625.501C418.869 598.73 418.869 598.73 418.869 598.73C418.869 598.515 418.654 598.3 418.546 598.3C413.168 598.3 413.168 598.3 413.168 598.3C412.953 598.3 412.846 598.515 412.846 598.73C412.846 625.501 412.846 625.501 412.846 625.501C412.846 625.716 413.061 625.931 413.168 625.931Z" fill="#636466"/>
<path d="M450.707 598.3C445.33 598.3 445.33 598.3 445.33 598.3C445.114 598.3 445.007 598.515 445.007 598.73C445.007 615.18 445.007 615.18 445.007 615.18C433.39 598.515 433.39 598.515 433.39 598.515C433.283 598.408 433.175 598.3 433.068 598.3C427.69 598.3 427.69 598.3 427.69 598.3C427.475 598.3 427.367 598.515 427.367 598.73C427.367 625.501 427.367 625.501 427.367 625.501C427.367 625.716 427.582 625.931 427.69 625.931C433.068 625.931 433.068 625.931 433.068 625.931C433.39 625.931 433.498 625.716 433.498 625.501C433.498 609.159 433.498 609.159 433.498 609.159C445.007 625.716 445.007 625.716 445.007 625.716C445.007 625.823 445.114 625.931 445.33 625.931C450.6 625.931 450.6 625.931 450.6 625.931C450.923 625.931 450.923 625.716 450.923 625.501C450.923 598.73 450.923 598.73 450.923 598.73C451.03 598.515 450.923 598.3 450.707 598.3Z" fill="#636466"/>
<path d="M471.355 609.374C469.957 609.052 469.957 609.052 469.957 609.052C466.838 608.514 465.009 608.084 465.009 606.364C465.009 604.859 466.515 603.999 468.989 603.999C471.571 603.999 473.829 604.751 475.98 605.934C476.088 606.041 476.196 606.041 476.303 606.041C476.411 605.934 476.518 605.934 476.518 605.826C478.885 601.096 478.885 601.096 478.885 601.096C478.992 601.096 478.992 600.881 478.992 600.773C478.992 600.666 478.885 600.558 478.777 600.558C474.797 598.3 471.893 597.87 468.774 597.87C462.643 597.87 458.448 601.418 458.448 606.686C458.448 611.309 461.03 613.997 466.515 614.857C467.806 615.072 467.806 615.072 467.806 615.072C471.033 615.717 472.861 616.04 472.861 617.867C472.861 619.803 470.602 620.34 468.774 620.34C465.87 620.34 463.288 619.48 460.922 617.867C460.815 617.867 460.599 617.867 460.599 617.867C460.384 617.867 460.384 617.975 460.277 618.082C457.695 622.705 457.695 622.705 457.695 622.705C457.48 622.92 457.588 623.135 457.803 623.243C460.492 625.393 464.472 626.576 468.774 626.576C476.626 626.576 479.422 621.738 479.422 617.33C479.422 612.814 476.841 610.342 471.355 609.374Z" fill="#636466"/>
<path d="M366.486 609.374C364.98 609.052 364.98 609.052 364.98 609.052C361.968 608.514 360.14 608.084 360.14 606.364C360.14 604.859 361.538 603.999 364.119 603.999C366.593 603.999 368.852 604.751 371.111 605.934C371.218 606.041 371.326 606.041 371.434 606.041C371.541 605.934 371.649 605.934 371.649 605.826C374.015 601.096 374.015 601.096 374.015 601.096C374.122 601.096 374.122 600.881 374.122 600.773C374.015 600.666 374.015 600.558 373.907 600.558C369.928 598.3 367.024 597.87 363.904 597.87C357.774 597.87 353.579 601.418 353.579 606.686C353.579 611.309 356.16 613.997 361.646 614.857C362.829 615.072 362.829 615.072 362.829 615.072C366.163 615.717 367.884 616.04 367.884 617.867C367.884 619.803 365.733 620.34 363.904 620.34C361 620.34 358.311 619.48 356.053 617.867C355.945 617.867 355.73 617.867 355.73 617.867C355.73 617.867 355.515 617.975 355.515 618.082C352.826 622.705 352.826 622.705 352.826 622.705C352.718 622.92 352.826 623.135 352.933 623.243C355.73 625.393 359.71 626.576 364.012 626.576C371.864 626.576 374.66 621.738 374.66 617.33C374.553 612.814 371.864 610.342 366.486 609.374Z" fill="#636466"/>
<path d="M507.819 598.3C502.441 598.3 502.441 598.3 502.441 598.3C502.226 598.3 502.118 598.515 502.118 598.73C502.118 614.427 502.118 614.427 502.118 614.427C502.118 618.082 500.29 620.018 497.063 620.018C493.836 620.018 492.008 618.082 492.008 614.427C492.008 598.73 492.008 598.73 492.008 598.73C492.008 598.515 491.793 598.3 491.685 598.3C486.307 598.3 486.307 598.3 486.307 598.3C485.985 598.3 485.877 598.515 485.877 598.73C485.877 614.75 485.877 614.75 485.877 614.75C485.877 622.168 489.964 626.361 497.063 626.361C504.162 626.361 508.249 622.168 508.249 614.75C508.249 598.73 508.249 598.73 508.249 598.73C508.142 598.515 508.034 598.3 507.819 598.3Z" fill="#636466"/>
<path d="M539.334 598.3C533.956 598.3 533.956 598.3 533.956 598.3C533.634 598.3 533.634 598.515 533.634 598.73C533.634 615.18 533.634 615.18 533.634 615.18C522.017 598.515 522.017 598.515 522.017 598.515C521.91 598.408 521.802 598.3 521.695 598.3C516.424 598.3 516.424 598.3 516.424 598.3C516.102 598.3 516.102 598.515 516.102 598.73C516.102 625.501 516.102 625.501 516.102 625.501C516.102 625.716 516.209 625.931 516.424 625.931C521.802 625.931 521.802 625.931 521.802 625.931C522.017 625.931 522.125 625.716 522.125 625.501C522.125 609.159 522.125 609.159 522.125 609.159C533.634 625.716 533.634 625.716 533.634 625.716C533.741 625.823 533.849 625.931 533.956 625.931C539.334 625.931 539.334 625.931 539.334 625.931C539.549 625.931 539.657 625.716 539.657 625.501C539.657 598.73 539.657 598.73 539.657 598.73C539.764 598.515 539.549 598.3 539.334 598.3Z" fill="#636466"/>
<path d="M572.785 609.697C572.678 609.482 572.57 609.374 572.463 609.374C560.093 609.374 560.093 609.374 560.093 609.374C559.878 609.374 559.771 609.482 559.771 609.804C559.771 614.32 559.771 614.32 559.771 614.32C559.771 614.642 559.986 614.75 560.093 614.75C566.87 614.75 566.87 614.75 566.87 614.75C565.794 617.975 562.89 620.233 559.771 620.233C555.791 620.233 552.564 616.577 552.564 612.062C552.564 607.761 555.468 604.214 559.448 603.999H559.556C559.878 603.999 559.878 603.999 559.878 603.999C562.029 603.999 564.073 604.966 565.471 606.686C565.579 606.901 565.794 606.901 566.009 606.794C569.881 603.461 569.881 603.461 569.881 603.461C569.989 603.353 569.989 603.246 570.096 603.138C570.096 603.031 569.989 602.923 569.881 602.816C567.3 599.591 563.75 597.763 559.878 597.763C552.564 597.763 546.648 604.106 546.648 611.954C546.648 619.803 552.564 626.253 559.878 626.253C566.224 626.253 571.71 621.415 572.893 614.642C573.108 613.782 573.215 612.814 573.215 611.954C573 611.309 572.893 610.557 572.785 609.697Z" fill="#636466"/>
<path d="M373.37 635.069C354.655 635.069 354.655 635.069 354.655 635.069C354.332 635.069 354.332 635.284 354.332 635.499C354.332 662.27 354.332 662.27 354.332 662.27C354.332 662.485 354.44 662.7 354.655 662.7C373.37 662.7 373.37 662.7 373.37 662.7C373.585 662.7 373.693 662.485 373.693 662.27C373.693 657.216 373.693 657.216 373.693 657.216C373.693 656.894 373.478 656.679 373.37 656.679C360.355 656.679 360.355 656.679 360.355 656.679C360.355 651.518 360.355 651.518 360.355 651.518C372.617 651.518 372.617 651.518 372.617 651.518C372.832 651.518 372.94 651.411 372.94 651.088C372.94 646.573 372.94 646.573 372.94 646.573C372.94 646.25 372.725 646.143 372.617 646.143C360.355 646.143 360.355 646.143 360.355 646.143C360.355 640.982 360.355 640.982 360.355 640.982C373.37 640.982 373.37 640.982 373.37 640.982C373.585 640.982 373.693 640.767 373.693 640.552C373.693 635.392 373.693 635.392 373.693 635.392C373.8 635.284 373.585 635.069 373.37 635.069Z" fill="#636466"/>
<path d="M432.744 646.143C420.375 646.143 420.375 646.143 420.375 646.143C420.159 646.143 420.052 646.358 420.052 646.573C420.052 651.088 420.052 651.088 420.052 651.088C420.052 651.411 420.267 651.626 420.375 651.626C427.151 651.626 427.151 651.626 427.151 651.626C426.075 654.744 423.171 657.001 420.052 657.001C416.072 657.001 412.845 653.454 412.845 648.938C412.845 644.53 415.75 640.982 419.729 640.767C419.837 640.767 419.837 640.767 419.837 640.767C420.159 640.767 420.159 640.767 420.159 640.767C422.311 640.767 424.354 641.735 425.752 643.455C425.968 643.67 426.075 643.67 426.29 643.563C430.162 640.23 430.162 640.23 430.162 640.23C430.27 640.122 430.378 640.015 430.378 639.907C430.378 639.8 430.27 639.692 430.27 639.585C427.689 636.359 424.032 634.532 420.159 634.532C412.845 634.532 406.93 640.982 406.93 648.831C406.93 656.679 412.845 663.022 420.159 663.022C426.505 663.022 431.991 658.184 433.174 651.518C433.389 650.658 433.497 649.691 433.497 648.831C433.497 647.971 433.389 647.218 433.282 646.358C432.959 646.25 432.851 646.143 432.744 646.143Z" fill="#636466"/>
<path d="M390.042 657.647C387.461 657.647 385.525 655.496 385.525 652.916C385.525 651.841 385.847 650.658 386.6 649.798C392.839 656.571 392.839 656.571 392.839 656.571C392.193 657.216 391.01 657.647 390.042 657.647ZM402.842 659.582C399.615 656.034 399.615 656.034 399.615 656.034C402.627 650.121 402.627 650.121 402.627 650.121C402.734 649.906 402.627 649.691 402.411 649.583C398.647 647.325 398.647 647.325 398.647 647.325C398.432 647.218 398.217 647.325 398.109 647.54C395.85 651.948 395.85 651.948 395.85 651.948C388.536 644.1 388.536 644.1 388.536 644.1C387.676 643.133 387.676 641.627 388.536 640.66C388.859 640.122 389.504 639.907 390.15 639.907C390.688 639.907 391.225 640.122 391.763 640.66C392.086 641.09 392.193 641.52 392.301 641.95C392.408 642.165 392.516 642.38 392.624 642.38C397.356 642.38 397.356 642.38 397.356 642.38C397.464 642.38 397.571 642.272 397.679 642.165C397.679 642.165 397.786 642.057 397.786 641.842C397.679 639.8 396.818 637.865 395.528 636.467C394.022 634.854 392.193 633.994 390.15 633.994C388.106 633.994 386.17 634.854 384.664 636.467C383.158 637.972 382.405 640.122 382.405 642.272C382.405 643.348 382.621 644.53 383.158 645.605C383.158 645.605 379.932 648.078 379.932 653.024C379.932 658.722 384.449 663.452 390.042 663.452C392.516 663.452 394.882 662.485 396.818 660.549C399.4 663.237 399.4 663.237 399.4 663.237C399.507 663.345 399.615 663.452 399.722 663.452C399.83 663.452 399.938 663.345 400.045 663.237C402.949 660.119 402.949 660.119 402.949 660.119C403.057 660.119 403.057 659.797 402.842 659.582Z" fill="#636466"/>
<path d="M232.254 647.003C232.254 657.969 240.644 667.108 250.969 667.108C258.176 667.108 264.091 662.377 266.888 657.324C241.504 629.801 241.504 629.801 241.504 629.801C236.664 632.489 232.254 639.047 232.254 647.003ZM257.853 628.296C263.554 625.501 267.641 619.265 267.641 611.954C267.641 601.956 260.219 594 250.969 594C241.719 594 234.298 601.956 234.298 611.954C234.298 619.265 238.277 625.501 244.085 628.296C268.394 654.314 268.394 654.314 268.394 654.314C269.254 651.948 269.684 649.476 269.684 646.895C269.684 638.402 264.737 631.199 257.853 628.296Z" fill="#0097DC"/>
</g>
<defs>
<clipPath id="clip0">
<rect x="176" y="594" width="397" height="73" fill="white"/>
</clipPath>
</defs>
</svg>
