<svg width="768" height="1024" viewBox="0 0 768 1024" fill="none" xmlns="http://www.w3.org/2000/svg">
<rect width="768" height="1024" fill="white"/>
<path d="M340.495 923.426H343.177V921.896H335.833V923.426H338.695V924.596C338.695 927.494 337.615 930.428 335.311 931.868L336.427 933.236C337.993 932.246 339.037 930.5 339.613 928.448C340.189 930.338 341.197 931.94 342.727 932.84L343.807 931.49C341.539 930.176 340.495 927.368 340.495 924.596V923.426ZM344.383 925.838H341.989V927.35H344.383V935.594H346.129V920.438H344.383V925.838ZM347.659 920.114V936.368H349.423V920.114H347.659ZM364.041 926.594C364.491 924.92 364.491 923.57 364.491 922.274V920.906H353.331V922.4H362.655C362.655 923.624 362.637 924.794 362.223 926.396L364.041 926.594ZM358.911 934.964C356.499 934.964 355.023 934.37 355.023 933.344C355.023 932.336 356.499 931.742 358.911 931.742C361.305 931.742 362.745 932.336 362.745 933.344C362.745 934.37 361.305 934.964 358.911 934.964ZM358.911 930.32C355.401 930.32 353.187 931.472 353.187 933.344C353.187 935.234 355.401 936.386 358.911 936.386C362.367 936.386 364.599 935.234 364.599 933.344C364.599 931.472 362.367 930.32 358.911 930.32ZM359.271 927.566V924.578H357.399V927.566H351.639V929.06H366.291V927.566H359.271ZM377.847 935.198C381.393 935.198 384.435 932.588 384.435 928.448C384.435 924.326 381.393 921.77 377.847 921.77C374.319 921.77 371.277 924.308 371.277 928.448C371.277 932.588 374.319 935.198 377.847 935.198ZM377.847 934.244C374.823 934.244 372.357 931.922 372.357 928.448C372.357 924.992 374.823 922.706 377.847 922.706C380.889 922.706 383.355 924.992 383.355 928.448C383.355 931.922 380.889 934.244 377.847 934.244ZM378.045 932.462C379.197 932.462 380.007 931.976 380.745 931.346L380.043 930.32C379.467 930.788 378.909 931.148 378.099 931.148C376.749 931.148 375.885 930.104 375.885 928.466C375.885 926.99 376.767 925.91 378.189 925.91C378.855 925.91 379.305 926.198 379.827 926.702L380.655 925.766C380.007 925.118 379.251 924.614 378.081 924.614C376.101 924.614 374.301 926.09 374.301 928.466C374.301 930.95 375.921 932.462 378.045 932.462ZM390.194 935H392.282V921.734H390.194V935ZM395.248 935H397.336V929.654H399.478L402.484 935H404.842L401.602 929.384C403.276 928.862 404.374 927.638 404.374 925.586C404.374 922.724 402.322 921.734 399.586 921.734H395.248V935ZM397.336 927.98V923.426H399.334C401.26 923.426 402.304 923.984 402.304 925.586C402.304 927.188 401.26 927.98 399.334 927.98H397.336ZM411.961 935.234C413.779 935.234 415.273 934.568 416.155 933.686V927.944H411.637V929.654H414.265V932.768C413.797 933.182 412.987 933.416 412.177 933.416C409.441 933.416 407.983 931.49 407.983 928.34C407.983 925.226 409.621 923.318 412.087 923.318C413.365 923.318 414.175 923.84 414.841 924.506L415.957 923.174C415.147 922.328 413.887 921.5 412.015 921.5C408.505 921.5 405.841 924.092 405.841 928.412C405.841 932.75 408.433 935.234 411.961 935.234ZM423.722 935.234C427.124 935.234 429.5 932.588 429.5 928.322C429.5 924.056 427.124 921.5 423.722 921.5C420.32 921.5 417.962 924.056 417.962 928.322C417.962 932.588 420.32 935.234 423.722 935.234ZM423.722 933.416C421.526 933.416 420.104 931.418 420.104 928.322C420.104 925.208 421.526 923.318 423.722 923.318C425.918 923.318 427.358 925.208 427.358 928.322C427.358 931.418 425.918 933.416 423.722 933.416Z" fill="#8E8E93"/>
<path d="M291.191 571.335H288.238V554.272H291.191V571.335ZM297.203 558.655L297.285 560.12C298.223 558.987 299.453 558.421 300.976 558.421C303.617 558.421 304.961 559.932 305.008 562.956V571.335H302.16V563.12C302.16 562.315 301.984 561.721 301.633 561.339C301.289 560.948 300.723 560.753 299.933 560.753C298.785 560.753 297.93 561.272 297.367 562.311V571.335H294.519V558.655H297.203ZM312.39 567.725L315.074 558.655H318.015L313.621 571.335H311.148L306.719 558.655H309.672L312.39 567.725ZM325.223 571.569C323.418 571.569 321.953 571.003 320.828 569.87C319.711 568.729 319.152 567.214 319.152 565.323V564.971C319.152 563.706 319.394 562.577 319.879 561.585C320.371 560.585 321.058 559.807 321.941 559.253C322.824 558.698 323.808 558.421 324.894 558.421C326.621 558.421 327.953 558.971 328.89 560.073C329.836 561.174 330.308 562.733 330.308 564.749V565.897H322.023C322.109 566.944 322.457 567.772 323.066 568.382C323.683 568.991 324.457 569.296 325.387 569.296C326.691 569.296 327.754 568.768 328.574 567.714L330.109 569.178C329.601 569.936 328.922 570.526 328.07 570.948C327.226 571.362 326.277 571.569 325.223 571.569ZM324.883 560.706C324.101 560.706 323.469 560.979 322.984 561.526C322.508 562.073 322.203 562.835 322.07 563.811H327.496V563.6C327.433 562.647 327.18 561.928 326.734 561.444C326.289 560.952 325.672 560.706 324.883 560.706ZM339.637 567.889C339.637 567.382 339.426 566.995 339.004 566.729C338.59 566.464 337.898 566.229 336.93 566.026C335.961 565.823 335.152 565.565 334.504 565.253C333.082 564.565 332.371 563.569 332.371 562.264C332.371 561.171 332.832 560.257 333.754 559.522C334.676 558.788 335.848 558.421 337.269 558.421C338.785 558.421 340.008 558.796 340.937 559.546C341.875 560.296 342.344 561.268 342.344 562.464H339.496C339.496 561.917 339.293 561.464 338.887 561.104C338.48 560.737 337.941 560.553 337.269 560.553C336.644 560.553 336.133 560.698 335.734 560.987C335.344 561.276 335.148 561.663 335.148 562.147C335.148 562.585 335.332 562.924 335.699 563.167C336.066 563.409 336.808 563.655 337.926 563.905C339.043 564.147 339.918 564.44 340.551 564.784C341.191 565.12 341.664 565.526 341.969 566.003C342.281 566.479 342.437 567.057 342.437 567.737C342.437 568.878 341.965 569.803 341.019 570.514C340.074 571.217 338.836 571.569 337.305 571.569C336.265 571.569 335.34 571.382 334.527 571.007C333.715 570.632 333.082 570.116 332.629 569.46C332.176 568.803 331.949 568.096 331.949 567.339H334.715C334.754 568.01 335.008 568.53 335.476 568.897C335.945 569.257 336.566 569.436 337.34 569.436C338.09 569.436 338.66 569.296 339.051 569.014C339.441 568.725 339.637 568.35 339.637 567.889ZM348.496 555.573V558.655H350.734V560.764H348.496V567.842C348.496 568.327 348.59 568.678 348.777 568.897C348.973 569.108 349.316 569.214 349.808 569.214C350.137 569.214 350.469 569.174 350.805 569.096V571.299C350.156 571.479 349.531 571.569 348.93 571.569C346.742 571.569 345.648 570.362 345.648 567.948V560.764H343.562V558.655H345.648V555.573H348.496ZM352.035 564.878C352.035 563.635 352.281 562.518 352.773 561.526C353.265 560.526 353.957 559.76 354.848 559.229C355.738 558.69 356.762 558.421 357.918 558.421C359.629 558.421 361.015 558.971 362.078 560.073C363.148 561.174 363.726 562.635 363.812 564.456L363.824 565.124C363.824 566.374 363.582 567.491 363.098 568.475C362.621 569.46 361.933 570.221 361.035 570.76C360.144 571.299 359.113 571.569 357.941 571.569C356.152 571.569 354.719 570.975 353.64 569.788C352.57 568.592 352.035 567.003 352.035 565.018V564.878ZM354.883 565.124C354.883 566.428 355.152 567.452 355.691 568.194C356.23 568.928 356.98 569.296 357.941 569.296C358.902 569.296 359.648 568.921 360.18 568.171C360.719 567.421 360.988 566.323 360.988 564.878C360.988 563.596 360.711 562.581 360.156 561.831C359.609 561.081 358.863 560.706 357.918 560.706C356.988 560.706 356.25 561.077 355.703 561.819C355.156 562.553 354.883 563.655 354.883 565.124ZM372.871 561.257C372.496 561.194 372.109 561.163 371.711 561.163C370.406 561.163 369.527 561.663 369.074 562.663V571.335H366.226V558.655H368.945L369.015 560.073C369.703 558.971 370.656 558.421 371.875 558.421C372.281 558.421 372.617 558.475 372.883 558.585L372.871 561.257ZM387.191 564.76H383.887V571.335H380.922V554.272H386.922C388.89 554.272 390.41 554.714 391.48 555.596C392.551 556.479 393.086 557.757 393.086 559.428C393.086 560.569 392.808 561.526 392.254 562.299C391.707 563.065 390.941 563.655 389.957 564.069L393.789 571.182V571.335H390.613L387.191 564.76ZM383.887 562.382H386.933C387.933 562.382 388.715 562.132 389.277 561.632C389.84 561.124 390.121 560.432 390.121 559.557C390.121 558.643 389.859 557.936 389.336 557.436C388.82 556.936 388.047 556.678 387.015 556.663H383.887V562.382ZM401.207 571.569C399.402 571.569 397.937 571.003 396.812 569.87C395.695 568.729 395.137 567.214 395.137 565.323V564.971C395.137 563.706 395.379 562.577 395.863 561.585C396.355 560.585 397.043 559.807 397.926 559.253C398.808 558.698 399.793 558.421 400.879 558.421C402.605 558.421 403.937 558.971 404.875 560.073C405.82 561.174 406.293 562.733 406.293 564.749V565.897H398.008C398.094 566.944 398.441 567.772 399.051 568.382C399.668 568.991 400.441 569.296 401.371 569.296C402.676 569.296 403.738 568.768 404.558 567.714L406.094 569.178C405.586 569.936 404.906 570.526 404.055 570.948C403.211 571.362 402.262 571.569 401.207 571.569ZM400.867 560.706C400.086 560.706 399.453 560.979 398.969 561.526C398.492 562.073 398.187 562.835 398.055 563.811H403.48V563.6C403.418 562.647 403.164 561.928 402.719 561.444C402.273 560.952 401.656 560.706 400.867 560.706ZM411.543 571.335H408.695V553.335H411.543V571.335ZM422.23 571.335C422.105 571.092 421.996 570.698 421.902 570.151C420.996 571.096 419.887 571.569 418.574 571.569C417.301 571.569 416.262 571.206 415.457 570.479C414.652 569.753 414.25 568.854 414.25 567.784C414.25 566.432 414.75 565.397 415.75 564.678C416.758 563.952 418.195 563.589 420.062 563.589H421.808V562.757C421.808 562.1 421.625 561.577 421.258 561.186C420.89 560.788 420.332 560.589 419.582 560.589C418.933 560.589 418.402 560.753 417.988 561.081C417.574 561.401 417.367 561.811 417.367 562.311H414.519C414.519 561.616 414.75 560.967 415.211 560.366C415.672 559.757 416.297 559.28 417.086 558.936C417.883 558.592 418.769 558.421 419.746 558.421C421.23 558.421 422.414 558.796 423.297 559.546C424.18 560.288 424.633 561.335 424.656 562.686V568.405C424.656 569.546 424.816 570.456 425.137 571.135V571.335H422.23ZM419.101 569.284C419.664 569.284 420.191 569.147 420.683 568.874C421.183 568.6 421.558 568.233 421.808 567.772V565.382H420.273C419.219 565.382 418.426 565.565 417.894 565.932C417.363 566.299 417.098 566.819 417.098 567.491C417.098 568.038 417.277 568.475 417.637 568.803C418.004 569.124 418.492 569.284 419.101 569.284ZM431.207 555.573V558.655H433.445V560.764H431.207V567.842C431.207 568.327 431.301 568.678 431.488 568.897C431.683 569.108 432.027 569.214 432.519 569.214C432.848 569.214 433.18 569.174 433.515 569.096V571.299C432.867 571.479 432.242 571.569 431.64 571.569C429.453 571.569 428.359 570.362 428.359 567.948V560.764H426.273V558.655H428.359V555.573H431.207ZM438.66 571.335H435.812V558.655H438.66V571.335ZM435.637 555.362C435.637 554.924 435.773 554.561 436.047 554.272C436.328 553.983 436.726 553.839 437.242 553.839C437.758 553.839 438.156 553.983 438.437 554.272C438.719 554.561 438.859 554.924 438.859 555.362C438.859 555.792 438.719 556.151 438.437 556.44C438.156 556.721 437.758 556.862 437.242 556.862C436.726 556.862 436.328 556.721 436.047 556.44C435.773 556.151 435.637 555.792 435.637 555.362ZM441.238 564.878C441.238 563.635 441.484 562.518 441.976 561.526C442.469 560.526 443.16 559.76 444.051 559.229C444.941 558.69 445.965 558.421 447.121 558.421C448.832 558.421 450.219 558.971 451.281 560.073C452.351 561.174 452.93 562.635 453.015 564.456L453.027 565.124C453.027 566.374 452.785 567.491 452.301 568.475C451.824 569.46 451.137 570.221 450.238 570.76C449.348 571.299 448.316 571.569 447.144 571.569C445.355 571.569 443.922 570.975 442.844 569.788C441.773 568.592 441.238 567.003 441.238 565.018V564.878ZM444.086 565.124C444.086 566.428 444.355 567.452 444.894 568.194C445.433 568.928 446.183 569.296 447.144 569.296C448.105 569.296 448.851 568.921 449.383 568.171C449.922 567.421 450.191 566.323 450.191 564.878C450.191 563.596 449.914 562.581 449.359 561.831C448.812 561.081 448.066 560.706 447.121 560.706C446.191 560.706 445.453 561.077 444.906 561.819C444.359 562.553 444.086 563.655 444.086 565.124ZM458.078 558.655L458.16 560.12C459.098 558.987 460.328 558.421 461.851 558.421C464.492 558.421 465.836 559.932 465.883 562.956V571.335H463.035V563.12C463.035 562.315 462.859 561.721 462.508 561.339C462.164 560.948 461.598 560.753 460.808 560.753C459.66 560.753 458.805 561.272 458.242 562.311V571.335H455.394V558.655H458.078ZM475.902 567.889C475.902 567.382 475.691 566.995 475.269 566.729C474.855 566.464 474.164 566.229 473.195 566.026C472.226 565.823 471.418 565.565 470.769 565.253C469.348 564.565 468.637 563.569 468.637 562.264C468.637 561.171 469.098 560.257 470.019 559.522C470.941 558.788 472.113 558.421 473.535 558.421C475.051 558.421 476.273 558.796 477.203 559.546C478.14 560.296 478.609 561.268 478.609 562.464H475.762C475.762 561.917 475.558 561.464 475.152 561.104C474.746 560.737 474.207 560.553 473.535 560.553C472.91 560.553 472.398 560.698 472 560.987C471.609 561.276 471.414 561.663 471.414 562.147C471.414 562.585 471.598 562.924 471.965 563.167C472.332 563.409 473.074 563.655 474.191 563.905C475.308 564.147 476.183 564.44 476.816 564.784C477.457 565.12 477.93 565.526 478.234 566.003C478.547 566.479 478.703 567.057 478.703 567.737C478.703 568.878 478.23 569.803 477.285 570.514C476.34 571.217 475.101 571.569 473.57 571.569C472.531 571.569 471.605 571.382 470.793 571.007C469.98 570.632 469.348 570.116 468.894 569.46C468.441 568.803 468.215 568.096 468.215 567.339H470.98C471.019 568.01 471.273 568.53 471.742 568.897C472.211 569.257 472.832 569.436 473.605 569.436C474.355 569.436 474.926 569.296 475.316 569.014C475.707 568.725 475.902 568.35 475.902 567.889Z" fill="#8E8E93"/>
<g clip-path="url(#clip0)">
<path d="M334.064 499.753C340.998 493.67 345.758 483.979 345.758 473.052C345.758 453.67 331.166 438 313.158 438C295.046 438 280.453 453.67 280.453 473.052C280.453 492.433 295.046 508.103 313.054 508.103C320.195 508.103 326.612 505.629 331.58 501.814C331.58 474.289 331.58 474.289 331.58 474.289C306.844 474.289 306.844 474.289 306.844 474.289C306.844 471.711 306.844 471.711 306.844 471.711C334.064 471.711 334.064 471.711 334.064 471.711V499.753Z" fill="#F15F22"/>
<path d="M247.542 460.165C247.542 440.165 247.542 440.165 247.542 440.165C195.38 440.165 195.38 440.165 195.38 440.165C194.035 440.165 193 441.299 193 442.639C193 503.361 193 503.361 193 503.361C193 504.701 194.035 505.732 195.38 505.732C247.542 505.732 247.542 505.732 247.542 505.732C247.542 485.732 247.542 485.732 247.542 485.732C220.323 485.732 220.323 485.732 220.323 485.732C220.323 482.948 220.323 482.948 220.323 482.948C247.542 482.948 247.542 482.948 247.542 482.948C247.542 462.948 247.542 462.948 247.542 462.948C220.323 462.948 220.323 462.948 220.323 462.948C220.323 460.165 220.323 460.165 220.323 460.165H247.542V460.165Z" fill="#80C342"/>
<path d="M412.306 442.124C407.131 442.124 407.131 442.124 407.131 442.124C406.924 442.124 406.821 442.33 406.821 442.536C406.821 452.742 406.821 452.742 406.821 452.742C396.471 452.742 396.471 452.742 396.471 452.742C396.471 442.536 396.471 442.536 396.471 442.536C396.471 442.33 396.265 442.124 396.161 442.124C390.986 442.124 390.986 442.124 390.986 442.124C390.779 442.124 390.676 442.33 390.676 442.536C390.676 468.206 390.676 468.206 390.676 468.206C390.676 468.412 390.883 468.619 390.986 468.619C396.161 468.619 396.161 468.619 396.161 468.619C396.368 468.619 396.471 468.412 396.471 468.206C396.471 458 396.471 458 396.471 458C406.821 458 406.821 458 406.821 458C406.821 468.206 406.821 468.206 406.821 468.206C406.821 468.412 407.028 468.619 407.131 468.619C412.306 468.619 412.306 468.619 412.306 468.619C412.513 468.619 412.617 468.412 412.617 468.206C412.617 442.536 412.617 442.536 412.617 442.536C412.72 442.33 412.513 442.124 412.306 442.124Z" fill="#636466"/>
<path d="M421.207 468.619C426.382 468.619 426.382 468.619 426.382 468.619C426.589 468.619 426.692 468.412 426.692 468.206C426.692 442.536 426.692 442.536 426.692 442.536C426.692 442.33 426.485 442.124 426.382 442.124C421.207 442.124 421.207 442.124 421.207 442.124C421 442.124 420.896 442.33 420.896 442.536C420.896 468.206 420.896 468.206 420.896 468.206C420.896 468.412 421.103 468.619 421.207 468.619Z" fill="#636466"/>
<path d="M457.328 442.124C452.153 442.124 452.153 442.124 452.153 442.124C451.946 442.124 451.842 442.33 451.842 442.536C451.842 458.309 451.842 458.309 451.842 458.309C440.665 442.33 440.665 442.33 440.665 442.33C440.561 442.227 440.458 442.124 440.354 442.124C435.18 442.124 435.18 442.124 435.18 442.124C434.973 442.124 434.869 442.33 434.869 442.536C434.869 468.206 434.869 468.206 434.869 468.206C434.869 468.412 435.076 468.619 435.18 468.619C440.354 468.619 440.354 468.619 440.354 468.619C440.665 468.619 440.768 468.412 440.768 468.206C440.768 452.536 440.768 452.536 440.768 452.536C451.842 468.412 451.842 468.412 451.842 468.412C451.842 468.515 451.946 468.619 452.153 468.619C457.224 468.619 457.224 468.619 457.224 468.619C457.535 468.619 457.535 468.412 457.535 468.206C457.535 442.536 457.535 442.536 457.535 442.536C457.638 442.33 457.535 442.124 457.328 442.124Z" fill="#636466"/>
<path d="M477.196 452.742C475.851 452.433 475.851 452.433 475.851 452.433C472.849 451.918 471.09 451.505 471.09 449.856C471.09 448.412 472.539 447.588 474.919 447.588C477.403 447.588 479.577 448.309 481.646 449.443C481.75 449.546 481.853 449.546 481.957 449.546C482.06 449.443 482.164 449.443 482.164 449.34C484.441 444.804 484.441 444.804 484.441 444.804C484.544 444.804 484.544 444.598 484.544 444.495C484.544 444.392 484.441 444.289 484.337 444.289C480.508 442.124 477.714 441.711 474.712 441.711C468.813 441.711 464.777 445.113 464.777 450.165C464.777 454.598 467.261 457.175 472.539 458C473.781 458.206 473.781 458.206 473.781 458.206C476.886 458.825 478.645 459.134 478.645 460.887C478.645 462.742 476.472 463.258 474.712 463.258C471.918 463.258 469.434 462.433 467.157 460.887C467.054 460.887 466.847 460.887 466.847 460.887C466.64 460.887 466.64 460.99 466.536 461.093C464.052 465.526 464.052 465.526 464.052 465.526C463.845 465.732 463.949 465.938 464.156 466.041C466.743 468.103 470.572 469.237 474.712 469.237C482.267 469.237 484.958 464.598 484.958 460.371C484.958 456.041 482.474 453.67 477.196 452.742Z" fill="#636466"/>
<path d="M376.29 452.742C374.841 452.433 374.841 452.433 374.841 452.433C371.943 451.918 370.184 451.505 370.184 449.856C370.184 448.412 371.529 447.588 374.013 447.588C376.394 447.588 378.567 448.309 380.741 449.443C380.844 449.546 380.948 449.546 381.051 449.546C381.155 449.443 381.258 449.443 381.258 449.34C383.535 444.804 383.535 444.804 383.535 444.804C383.638 444.804 383.638 444.598 383.638 444.495C383.535 444.392 383.535 444.289 383.431 444.289C379.602 442.124 376.808 441.711 373.806 441.711C367.907 441.711 363.871 445.113 363.871 450.165C363.871 454.598 366.355 457.175 371.633 458C372.771 458.206 372.771 458.206 372.771 458.206C375.98 458.825 377.636 459.134 377.636 460.887C377.636 462.742 375.566 463.258 373.806 463.258C371.012 463.258 368.425 462.433 366.251 460.887C366.148 460.887 365.941 460.887 365.941 460.887C365.941 460.887 365.734 460.99 365.734 461.093C363.146 465.526 363.146 465.526 363.146 465.526C363.043 465.732 363.146 465.938 363.25 466.041C365.941 468.103 369.77 469.237 373.91 469.237C381.465 469.237 384.156 464.598 384.156 460.371C384.052 456.041 381.465 453.67 376.29 452.742Z" fill="#636466"/>
<path d="M512.283 442.124C507.108 442.124 507.108 442.124 507.108 442.124C506.901 442.124 506.798 442.33 506.798 442.536C506.798 457.588 506.798 457.588 506.798 457.588C506.798 461.093 505.038 462.948 501.933 462.948C498.829 462.948 497.069 461.093 497.069 457.588C497.069 442.536 497.069 442.536 497.069 442.536C497.069 442.33 496.862 442.124 496.759 442.124C491.584 442.124 491.584 442.124 491.584 442.124C491.273 442.124 491.17 442.33 491.17 442.536C491.17 457.897 491.17 457.897 491.17 457.897C491.17 465.01 495.103 469.031 501.933 469.031C508.764 469.031 512.697 465.01 512.697 457.897C512.697 442.536 512.697 442.536 512.697 442.536C512.593 442.33 512.49 442.124 512.283 442.124Z" fill="#636466"/>
<path d="M542.607 442.124C537.432 442.124 537.432 442.124 537.432 442.124C537.122 442.124 537.122 442.33 537.122 442.536C537.122 458.309 537.122 458.309 537.122 458.309C525.944 442.33 525.944 442.33 525.944 442.33C525.841 442.227 525.737 442.124 525.634 442.124C520.562 442.124 520.562 442.124 520.562 442.124C520.252 442.124 520.252 442.33 520.252 442.536C520.252 468.206 520.252 468.206 520.252 468.206C520.252 468.412 520.355 468.619 520.562 468.619C525.737 468.619 525.737 468.619 525.737 468.619C525.944 468.619 526.048 468.412 526.048 468.206C526.048 452.536 526.048 452.536 526.048 452.536C537.122 468.412 537.122 468.412 537.122 468.412C537.225 468.515 537.329 468.619 537.432 468.619C542.607 468.619 542.607 468.619 542.607 468.619C542.814 468.619 542.917 468.412 542.917 468.206C542.917 442.536 542.917 442.536 542.917 442.536C543.021 442.33 542.814 442.124 542.607 442.124Z" fill="#636466"/>
<path d="M574.794 453.052C574.69 452.845 574.587 452.742 574.483 452.742C562.581 452.742 562.581 452.742 562.581 452.742C562.374 452.742 562.271 452.845 562.271 453.155C562.271 457.485 562.271 457.485 562.271 457.485C562.271 457.794 562.478 457.897 562.581 457.897C569.102 457.897 569.102 457.897 569.102 457.897C568.067 460.99 565.272 463.155 562.271 463.155C558.442 463.155 555.337 459.649 555.337 455.32C555.337 451.196 558.131 447.794 561.96 447.588H562.064C562.374 447.588 562.374 447.588 562.374 447.588C564.444 447.588 566.411 448.515 567.756 450.165C567.86 450.371 568.067 450.371 568.274 450.268C571.999 447.072 571.999 447.072 571.999 447.072C572.103 446.969 572.103 446.866 572.206 446.763C572.206 446.66 572.103 446.557 571.999 446.454C569.516 443.361 566.1 441.608 562.374 441.608C555.337 441.608 549.645 447.691 549.645 455.216C549.645 462.742 555.337 468.928 562.374 468.928C568.481 468.928 573.759 464.289 574.897 457.794C575.104 456.969 575.208 456.041 575.208 455.216C575.001 454.598 574.897 453.876 574.794 453.052Z" fill="#636466"/>
<path d="M382.912 477.381C364.904 477.381 364.904 477.381 364.904 477.381C364.594 477.381 364.594 477.588 364.594 477.794C364.594 503.464 364.594 503.464 364.594 503.464C364.594 503.67 364.697 503.876 364.904 503.876C382.912 503.876 382.912 503.876 382.912 503.876C383.119 503.876 383.223 503.67 383.223 503.464C383.223 498.619 383.223 498.619 383.223 498.619C383.223 498.309 383.016 498.103 382.912 498.103C370.389 498.103 370.389 498.103 370.389 498.103C370.389 493.155 370.389 493.155 370.389 493.155C382.188 493.155 382.188 493.155 382.188 493.155C382.395 493.155 382.498 493.052 382.498 492.742C382.498 488.412 382.498 488.412 382.498 488.412C382.498 488.103 382.291 488 382.188 488C370.389 488 370.389 488 370.389 488C370.389 483.052 370.389 483.052 370.389 483.052C382.912 483.052 382.912 483.052 382.912 483.052C383.119 483.052 383.223 482.845 383.223 482.639C383.223 477.691 383.223 477.691 383.223 477.691C383.326 477.588 383.119 477.381 382.912 477.381Z" fill="#636466"/>
<path d="M440.042 488C428.14 488 428.14 488 428.14 488C427.933 488 427.829 488.206 427.829 488.412C427.829 492.742 427.829 492.742 427.829 492.742C427.829 493.052 428.036 493.258 428.14 493.258C434.66 493.258 434.66 493.258 434.66 493.258C433.625 496.247 430.831 498.412 427.829 498.412C424 498.412 420.895 495.01 420.895 490.68C420.895 486.454 423.69 483.052 427.519 482.845C427.623 482.845 427.623 482.845 427.623 482.845C427.933 482.845 427.933 482.845 427.933 482.845C430.003 482.845 431.969 483.773 433.315 485.423C433.522 485.629 433.625 485.629 433.832 485.526C437.558 482.33 437.558 482.33 437.558 482.33C437.662 482.227 437.765 482.124 437.765 482.021C437.765 481.918 437.662 481.814 437.662 481.711C435.178 478.619 431.659 476.866 427.933 476.866C420.895 476.866 415.203 483.052 415.203 490.577C415.203 498.103 420.895 504.186 427.933 504.186C434.039 504.186 439.317 499.546 440.456 493.155C440.663 492.33 440.766 491.402 440.766 490.577C440.766 489.753 440.663 489.031 440.559 488.206C440.249 488.103 440.145 488 440.042 488Z" fill="#636466"/>
<path d="M398.955 499.031C396.471 499.031 394.608 496.969 394.608 494.495C394.608 493.464 394.919 492.33 395.643 491.505C401.646 498 401.646 498 401.646 498C401.025 498.619 399.887 499.031 398.955 499.031ZM411.271 500.887C408.166 497.485 408.166 497.485 408.166 497.485C411.064 491.814 411.064 491.814 411.064 491.814C411.167 491.608 411.064 491.402 410.857 491.299C407.235 489.134 407.235 489.134 407.235 489.134C407.028 489.031 406.821 489.134 406.717 489.34C404.544 493.567 404.544 493.567 404.544 493.567C397.506 486.041 397.506 486.041 397.506 486.041C396.678 485.113 396.678 483.67 397.506 482.742C397.817 482.227 398.438 482.021 399.059 482.021C399.576 482.021 400.094 482.227 400.611 482.742C400.921 483.155 401.025 483.567 401.128 483.979C401.232 484.186 401.335 484.392 401.439 484.392C405.993 484.392 405.993 484.392 405.993 484.392C406.096 484.392 406.2 484.289 406.303 484.186C406.303 484.186 406.407 484.082 406.407 483.876C406.303 481.918 405.475 480.062 404.233 478.722C402.784 477.175 401.025 476.351 399.059 476.351C397.092 476.351 395.229 477.175 393.78 478.722C392.331 480.165 391.607 482.227 391.607 484.289C391.607 485.32 391.814 486.454 392.331 487.485C392.331 487.485 389.227 489.856 389.227 494.598C389.227 500.062 393.573 504.598 398.955 504.598C401.335 504.598 403.612 503.67 405.475 501.814C407.959 504.392 407.959 504.392 407.959 504.392C408.063 504.495 408.166 504.598 408.27 504.598C408.373 504.598 408.477 504.495 408.58 504.392C411.374 501.402 411.374 501.402 411.374 501.402C411.478 501.402 411.478 501.093 411.271 500.887Z" fill="#636466"/>
<path d="M247.127 488.825C247.127 499.34 255.2 508.103 265.135 508.103C272.069 508.103 277.761 503.567 280.452 498.722C256.028 472.33 256.028 472.33 256.028 472.33C251.37 474.907 247.127 481.196 247.127 488.825ZM271.759 470.887C277.244 468.206 281.177 462.227 281.177 455.216C281.177 445.629 274.036 438 265.135 438C256.235 438 249.093 445.629 249.093 455.216C249.093 462.227 252.923 468.206 258.511 470.887C281.901 495.835 281.901 495.835 281.901 495.835C282.729 493.567 283.143 491.196 283.143 488.722C283.143 480.577 278.382 473.67 271.759 470.887Z" fill="#0097DC"/>
</g>
<defs>
<clipPath id="clip0">
<rect x="193" y="438" width="382" height="70" fill="white"/>
</clipPath>
</defs>
</svg>
