<svg width="828" height="1792" viewBox="0 0 828 1792" fill="none" xmlns="http://www.w3.org/2000/svg">
<rect width="828" height="1792" fill="white"/>
<path d="M369.97 1668.78H372.801V1667.17H365.049V1668.78H368.07V1670.02C368.07 1673.08 366.93 1676.17 364.498 1677.69L365.676 1679.14C367.329 1678.09 368.431 1676.25 369.039 1674.08C369.647 1676.08 370.711 1677.77 372.326 1678.72L373.466 1677.29C371.072 1675.91 369.97 1672.94 369.97 1670.02V1668.78ZM374.074 1671.33H371.547V1672.92H374.074V1681.63H375.917V1665.63H374.074V1671.33ZM377.532 1665.29V1682.44H379.394V1665.29H377.532ZM394.853 1672.13C395.328 1670.36 395.328 1668.93 395.328 1667.57V1666.12H383.548V1667.7H393.39C393.39 1668.99 393.371 1670.23 392.934 1671.92L394.853 1672.13ZM389.438 1680.96C386.892 1680.96 385.334 1680.33 385.334 1679.25C385.334 1678.19 386.892 1677.56 389.438 1677.56C391.965 1677.56 393.485 1678.19 393.485 1679.25C393.485 1680.33 391.965 1680.96 389.438 1680.96ZM389.438 1676.06C385.733 1676.06 383.396 1677.28 383.396 1679.25C383.396 1681.25 385.733 1682.46 389.438 1682.46C393.086 1682.46 395.442 1681.25 395.442 1679.25C395.442 1677.28 393.086 1676.06 389.438 1676.06ZM389.818 1673.15V1670H387.842V1673.15H381.762V1674.73H397.228V1673.15H389.818ZM409.481 1681.21C413.224 1681.21 416.435 1678.45 416.435 1674.08C416.435 1669.73 413.224 1667.03 409.481 1667.03C405.757 1667.03 402.546 1669.71 402.546 1674.08C402.546 1678.45 405.757 1681.21 409.481 1681.21ZM409.481 1680.2C406.289 1680.2 403.686 1677.75 403.686 1674.08C403.686 1670.44 406.289 1668.02 409.481 1668.02C412.692 1668.02 415.295 1670.44 415.295 1674.08C415.295 1677.75 412.692 1680.2 409.481 1680.2ZM409.69 1678.32C410.906 1678.32 411.761 1677.81 412.54 1677.14L411.799 1676.06C411.191 1676.55 410.602 1676.93 409.747 1676.93C408.322 1676.93 407.41 1675.83 407.41 1674.1C407.41 1672.54 408.341 1671.41 409.842 1671.41C410.545 1671.41 411.02 1671.71 411.571 1672.24L412.445 1671.25C411.761 1670.57 410.963 1670.04 409.728 1670.04C407.638 1670.04 405.738 1671.59 405.738 1674.1C405.738 1676.72 407.448 1678.32 409.69 1678.32ZM422.569 1681H424.773V1667H422.569V1681ZM427.932 1681H430.136V1675.36H432.397L435.57 1681H438.059L434.639 1675.07C436.406 1674.52 437.565 1673.23 437.565 1671.06C437.565 1668.04 435.399 1667 432.511 1667H427.932V1681ZM430.136 1673.59V1668.78H432.245C434.278 1668.78 435.38 1669.37 435.38 1671.06C435.38 1672.75 434.278 1673.59 432.245 1673.59H430.136ZM445.601 1681.25C447.52 1681.25 449.097 1680.54 450.028 1679.61V1673.55H445.259V1675.36H448.033V1678.64C447.539 1679.08 446.684 1679.33 445.829 1679.33C442.941 1679.33 441.402 1677.29 441.402 1673.97C441.402 1670.68 443.131 1668.67 445.734 1668.67C447.083 1668.67 447.938 1669.22 448.641 1669.92L449.819 1668.52C448.964 1667.62 447.634 1666.75 445.658 1666.75C441.953 1666.75 439.141 1669.49 439.141 1674.05C439.141 1678.62 441.877 1681.25 445.601 1681.25ZM458.043 1681.25C461.634 1681.25 464.142 1678.45 464.142 1673.95C464.142 1669.45 461.634 1666.75 458.043 1666.75C454.452 1666.75 451.963 1669.45 451.963 1673.95C451.963 1678.45 454.452 1681.25 458.043 1681.25ZM458.043 1679.33C455.725 1679.33 454.224 1677.22 454.224 1673.95C454.224 1670.66 455.725 1668.67 458.043 1668.67C460.361 1668.67 461.881 1670.66 461.881 1673.95C461.881 1677.22 460.361 1679.33 458.043 1679.33Z" fill="#8E8E93"/>
<path d="M318.333 955.192H315.257V937.419H318.333V955.192ZM324.596 941.984L324.681 943.51C325.658 942.33 326.939 941.74 328.526 941.74C331.277 941.74 332.677 943.315 332.726 946.464V955.192H329.759V946.635C329.759 945.797 329.576 945.178 329.21 944.779C328.852 944.373 328.262 944.169 327.44 944.169C326.244 944.169 325.353 944.71 324.767 945.793V955.192H321.8V941.984H324.596ZM340.416 951.432L343.211 941.984H346.275L341.698 955.192H339.122L334.508 941.984H337.584L340.416 951.432ZM353.783 955.436C351.903 955.436 350.377 954.846 349.205 953.666C348.041 952.478 347.459 950.899 347.459 948.93V948.564C347.459 947.245 347.712 946.069 348.216 945.036C348.729 943.994 349.445 943.184 350.365 942.607C351.284 942.029 352.31 941.74 353.441 941.74C355.239 941.74 356.627 942.314 357.604 943.461C358.588 944.609 359.081 946.232 359.081 948.332V949.528H350.45C350.54 950.618 350.902 951.481 351.537 952.116C352.18 952.751 352.985 953.068 353.954 953.068C355.313 953.068 356.419 952.519 357.274 951.42L358.873 952.946C358.344 953.735 357.636 954.35 356.749 954.789C355.87 955.22 354.881 955.436 353.783 955.436ZM353.429 944.12C352.615 944.12 351.956 944.405 351.451 944.975C350.955 945.544 350.637 946.338 350.499 947.355H356.151V947.135C356.086 946.143 355.821 945.394 355.357 944.889C354.894 944.377 354.251 944.12 353.429 944.12ZM368.797 951.603C368.797 951.074 368.578 950.671 368.138 950.395C367.707 950.118 366.987 949.874 365.978 949.662C364.968 949.451 364.126 949.182 363.451 948.857C361.97 948.14 361.229 947.103 361.229 945.744C361.229 944.604 361.709 943.652 362.669 942.887C363.63 942.122 364.85 941.74 366.332 941.74C367.91 941.74 369.184 942.13 370.152 942.912C371.129 943.693 371.617 944.706 371.617 945.951H368.651C368.651 945.382 368.439 944.91 368.016 944.535C367.593 944.153 367.031 943.962 366.332 943.962C365.68 943.962 365.147 944.112 364.732 944.413C364.326 944.714 364.122 945.117 364.122 945.622C364.122 946.077 364.313 946.431 364.696 946.684C365.078 946.936 365.851 947.192 367.015 947.453C368.179 947.705 369.09 948.01 369.749 948.368C370.417 948.718 370.909 949.141 371.227 949.638C371.552 950.134 371.715 950.736 371.715 951.444C371.715 952.633 371.222 953.597 370.238 954.338C369.253 955.07 367.963 955.436 366.368 955.436C365.286 955.436 364.321 955.241 363.475 954.85C362.629 954.46 361.97 953.922 361.498 953.239C361.026 952.555 360.79 951.819 360.79 951.029H363.67C363.711 951.729 363.976 952.27 364.464 952.653C364.952 953.027 365.599 953.214 366.405 953.214C367.186 953.214 367.78 953.068 368.187 952.775C368.594 952.474 368.797 952.083 368.797 951.603ZM378.026 938.774V941.984H380.357V944.181H378.026V951.554C378.026 952.059 378.124 952.425 378.319 952.653C378.522 952.873 378.88 952.983 379.393 952.983C379.735 952.983 380.081 952.942 380.431 952.86V955.155C379.755 955.343 379.104 955.436 378.478 955.436C376.199 955.436 375.06 954.179 375.06 951.664V944.181H372.887V941.984H375.06V938.774H378.026ZM381.712 948.466C381.712 947.172 381.969 946.008 382.481 944.975C382.994 943.933 383.714 943.136 384.642 942.582C385.57 942.021 386.636 941.74 387.84 941.74C389.623 941.74 391.067 942.314 392.174 943.461C393.289 944.609 393.891 946.13 393.98 948.026L393.993 948.722C393.993 950.024 393.74 951.188 393.236 952.214C392.739 953.239 392.023 954.032 391.087 954.594C390.16 955.155 389.085 955.436 387.865 955.436C386.001 955.436 384.508 954.818 383.385 953.581C382.27 952.336 381.712 950.679 381.712 948.612V948.466ZM384.679 948.722C384.679 950.081 384.959 951.147 385.521 951.921C386.083 952.686 386.864 953.068 387.865 953.068C388.866 953.068 389.643 952.677 390.196 951.896C390.758 951.115 391.039 949.971 391.039 948.466C391.039 947.131 390.75 946.073 390.172 945.292C389.602 944.511 388.825 944.12 387.84 944.12C386.872 944.12 386.103 944.507 385.533 945.28C384.964 946.045 384.679 947.192 384.679 948.722ZM403.416 944.694C403.026 944.629 402.623 944.596 402.208 944.596C400.849 944.596 399.933 945.117 399.461 946.159V955.192H396.495V941.984H399.327L399.4 943.461C400.117 942.314 401.109 941.74 402.379 941.74C402.802 941.74 403.152 941.797 403.429 941.911L403.416 944.694ZM418.333 948.344H414.891V955.192H411.803V937.419H418.053C420.104 937.419 421.686 937.878 422.801 938.798C423.916 939.718 424.474 941.048 424.474 942.79C424.474 943.978 424.185 944.975 423.607 945.78C423.037 946.578 422.24 947.192 421.214 947.624L425.206 955.033V955.192H421.898L418.333 948.344ZM414.891 945.866H418.065C419.107 945.866 419.92 945.605 420.506 945.085C421.092 944.556 421.385 943.835 421.385 942.924C421.385 941.972 421.113 941.235 420.567 940.714C420.03 940.194 419.225 939.925 418.15 939.909H414.891V945.866ZM432.933 955.436C431.053 955.436 429.527 954.846 428.355 953.666C427.192 952.478 426.61 950.899 426.61 948.93V948.564C426.61 947.245 426.862 946.069 427.367 945.036C427.879 943.994 428.596 943.184 429.515 942.607C430.435 942.029 431.46 941.74 432.591 941.74C434.39 941.74 435.777 942.314 436.754 943.461C437.739 944.609 438.231 946.232 438.231 948.332V949.528H429.601C429.69 950.618 430.052 951.481 430.687 952.116C431.33 952.751 432.136 953.068 433.104 953.068C434.463 953.068 435.57 952.519 436.424 951.42L438.023 952.946C437.494 953.735 436.786 954.35 435.899 954.789C435.02 955.22 434.032 955.436 432.933 955.436ZM432.579 944.12C431.765 944.12 431.106 944.405 430.602 944.975C430.105 945.544 429.788 946.338 429.649 947.355H435.301V947.135C435.236 946.143 434.972 945.394 434.508 944.889C434.044 944.377 433.401 944.12 432.579 944.12ZM443.7 955.192H440.733V936.442H443.7V955.192ZM454.833 955.192C454.702 954.94 454.588 954.529 454.491 953.959C453.547 954.944 452.391 955.436 451.024 955.436C449.697 955.436 448.615 955.058 447.777 954.301C446.939 953.544 446.52 952.608 446.52 951.493C446.52 950.085 447.04 949.007 448.082 948.258C449.132 947.502 450.629 947.123 452.574 947.123H454.393V946.256C454.393 945.573 454.202 945.028 453.819 944.621C453.437 944.206 452.855 943.998 452.074 943.998C451.398 943.998 450.845 944.169 450.414 944.511C449.982 944.845 449.767 945.272 449.767 945.793H446.8C446.8 945.068 447.04 944.393 447.52 943.766C448.001 943.131 448.652 942.635 449.474 942.277C450.304 941.919 451.227 941.74 452.245 941.74C453.791 941.74 455.024 942.13 455.943 942.912C456.863 943.685 457.335 944.775 457.359 946.183V952.14C457.359 953.328 457.526 954.276 457.86 954.984V955.192H454.833ZM451.573 953.056C452.159 953.056 452.708 952.913 453.221 952.629C453.742 952.344 454.133 951.961 454.393 951.481V948.991H452.794C451.695 948.991 450.869 949.182 450.316 949.565C449.763 949.947 449.486 950.488 449.486 951.188C449.486 951.758 449.673 952.214 450.047 952.555C450.43 952.889 450.938 953.056 451.573 953.056ZM464.183 938.774V941.984H466.515V944.181H464.183V951.554C464.183 952.059 464.281 952.425 464.476 952.653C464.68 952.873 465.038 952.983 465.55 952.983C465.892 952.983 466.238 952.942 466.588 952.86V955.155C465.912 955.343 465.261 955.436 464.635 955.436C462.356 955.436 461.217 954.179 461.217 951.664V944.181H459.044V941.984H461.217V938.774H464.183ZM471.947 955.192H468.98V941.984H471.947V955.192ZM468.797 938.554C468.797 938.098 468.94 937.72 469.225 937.419C469.518 937.117 469.933 936.967 470.47 936.967C471.007 936.967 471.422 937.117 471.715 937.419C472.008 937.72 472.154 938.098 472.154 938.554C472.154 939.001 472.008 939.376 471.715 939.677C471.422 939.97 471.007 940.116 470.47 940.116C469.933 940.116 469.518 939.97 469.225 939.677C468.94 939.376 468.797 939.001 468.797 938.554ZM474.632 948.466C474.632 947.172 474.889 946.008 475.401 944.975C475.914 943.933 476.634 943.136 477.562 942.582C478.49 942.021 479.556 941.74 480.76 941.74C482.542 941.74 483.987 942.314 485.094 943.461C486.209 944.609 486.811 946.13 486.9 948.026L486.913 948.722C486.913 950.024 486.66 951.188 486.156 952.214C485.659 953.239 484.943 954.032 484.007 954.594C483.08 955.155 482.005 955.436 480.785 955.436C478.921 955.436 477.428 954.818 476.305 953.581C475.19 952.336 474.632 950.679 474.632 948.612V948.466ZM477.599 948.722C477.599 950.081 477.879 951.147 478.441 951.921C479.002 952.686 479.784 953.068 480.785 953.068C481.786 953.068 482.563 952.677 483.116 951.896C483.678 951.115 483.958 949.971 483.958 948.466C483.958 947.131 483.67 946.073 483.092 945.292C482.522 944.511 481.745 944.12 480.76 944.12C479.792 944.12 479.023 944.507 478.453 945.28C477.883 946.045 477.599 947.192 477.599 948.722ZM492.174 941.984L492.259 943.51C493.236 942.33 494.518 941.74 496.104 941.74C498.855 941.74 500.255 943.315 500.304 946.464V955.192H497.337V946.635C497.337 945.797 497.154 945.178 496.788 944.779C496.43 944.373 495.84 944.169 495.018 944.169C493.822 944.169 492.931 944.71 492.345 945.793V955.192H489.378V941.984H492.174ZM510.741 951.603C510.741 951.074 510.521 950.671 510.082 950.395C509.65 950.118 508.93 949.874 507.921 949.662C506.912 949.451 506.069 949.182 505.394 948.857C503.913 948.14 503.172 947.103 503.172 945.744C503.172 944.604 503.652 943.652 504.613 942.887C505.573 942.122 506.794 941.74 508.275 941.74C509.854 941.74 511.127 942.13 512.096 942.912C513.072 943.693 513.561 944.706 513.561 945.951H510.594C510.594 945.382 510.383 944.91 509.959 944.535C509.536 944.153 508.975 943.962 508.275 943.962C507.624 943.962 507.091 944.112 506.676 944.413C506.269 944.714 506.065 945.117 506.065 945.622C506.065 946.077 506.257 946.431 506.639 946.684C507.022 946.936 507.795 947.192 508.958 947.453C510.122 947.705 511.034 948.01 511.693 948.368C512.36 948.718 512.853 949.141 513.17 949.638C513.495 950.134 513.658 950.736 513.658 951.444C513.658 952.633 513.166 953.597 512.181 954.338C511.196 955.07 509.907 955.436 508.312 955.436C507.229 955.436 506.265 955.241 505.418 954.85C504.572 954.46 503.913 953.922 503.441 953.239C502.969 952.555 502.733 951.819 502.733 951.029H505.614C505.654 951.729 505.919 952.27 506.407 952.653C506.895 953.027 507.542 953.214 508.348 953.214C509.129 953.214 509.723 953.068 510.13 952.775C510.537 952.474 510.741 952.083 510.741 951.603Z" fill="#8E8E93"/>
<g clip-path="url(#clip0)">
<path d="M357.005 861.457C364.92 854.418 370.353 843.205 370.353 830.56C370.353 808.133 353.698 790 333.144 790C312.472 790 295.816 808.133 295.816 830.56C295.816 852.987 312.472 871.119 333.026 871.119C341.176 871.119 348.5 868.256 354.17 863.842C354.17 831.991 354.17 831.991 354.17 831.991C325.938 831.991 325.938 831.991 325.938 831.991C325.938 829.009 325.938 829.009 325.938 829.009C357.005 829.009 357.005 829.009 357.005 829.009V861.457Z" fill="#F15F22"/>
<path d="M258.252 815.648C258.252 792.505 258.252 792.505 258.252 792.505C198.717 792.505 198.717 792.505 198.717 792.505C197.181 792.505 196 793.817 196 795.368C196 865.632 196 865.632 196 865.632C196 867.183 197.181 868.376 198.717 868.376C258.252 868.376 258.252 868.376 258.252 868.376C258.252 845.233 258.252 845.233 258.252 845.233C227.185 845.233 227.185 845.233 227.185 845.233C227.185 842.012 227.185 842.012 227.185 842.012C258.252 842.012 258.252 842.012 258.252 842.012C258.252 818.869 258.252 818.869 258.252 818.869C227.185 818.869 227.185 818.869 227.185 818.869C227.185 815.648 227.185 815.648 227.185 815.648H258.252V815.648Z" fill="#80C342"/>
<path d="M446.307 794.772C440.401 794.772 440.401 794.772 440.401 794.772C440.165 794.772 440.047 795.01 440.047 795.249C440.047 807.059 440.047 807.059 440.047 807.059C428.234 807.059 428.234 807.059 428.234 807.059C428.234 795.249 428.234 795.249 428.234 795.249C428.234 795.01 427.998 794.772 427.88 794.772C421.974 794.772 421.974 794.772 421.974 794.772C421.737 794.772 421.619 795.01 421.619 795.249C421.619 824.953 421.619 824.953 421.619 824.953C421.619 825.191 421.855 825.43 421.974 825.43C427.88 825.43 427.88 825.43 427.88 825.43C428.116 825.43 428.234 825.191 428.234 824.953C428.234 813.143 428.234 813.143 428.234 813.143C440.047 813.143 440.047 813.143 440.047 813.143C440.047 824.953 440.047 824.953 440.047 824.953C440.047 825.191 440.283 825.43 440.401 825.43C446.307 825.43 446.307 825.43 446.307 825.43C446.544 825.43 446.662 825.191 446.662 824.953C446.662 795.249 446.662 795.249 446.662 795.249C446.78 795.01 446.544 794.772 446.307 794.772Z" fill="#636466"/>
<path d="M456.466 825.43C462.372 825.43 462.372 825.43 462.372 825.43C462.608 825.43 462.726 825.191 462.726 824.953C462.726 795.249 462.726 795.249 462.726 795.249C462.726 795.01 462.49 794.772 462.372 794.772C456.466 794.772 456.466 794.772 456.466 794.772C456.229 794.772 456.111 795.01 456.111 795.249C456.111 824.953 456.111 824.953 456.111 824.953C456.111 825.191 456.348 825.43 456.466 825.43Z" fill="#636466"/>
<path d="M497.694 794.772C491.787 794.772 491.787 794.772 491.787 794.772C491.551 794.772 491.433 795.01 491.433 795.249C491.433 813.501 491.433 813.501 491.433 813.501C478.676 795.01 478.676 795.01 478.676 795.01C478.557 794.891 478.439 794.772 478.321 794.772C472.415 794.772 472.415 794.772 472.415 794.772C472.179 794.772 472.061 795.01 472.061 795.249C472.061 824.953 472.061 824.953 472.061 824.953C472.061 825.191 472.297 825.43 472.415 825.43C478.321 825.43 478.321 825.43 478.321 825.43C478.676 825.43 478.794 825.191 478.794 824.953C478.794 806.82 478.794 806.82 478.794 806.82C491.433 825.191 491.433 825.191 491.433 825.191C491.433 825.311 491.551 825.43 491.787 825.43C497.576 825.43 497.576 825.43 497.576 825.43C497.93 825.43 497.93 825.191 497.93 824.953C497.93 795.249 497.93 795.249 497.93 795.249C498.048 795.01 497.93 794.772 497.694 794.772Z" fill="#636466"/>
<path d="M520.371 807.059C518.835 806.701 518.835 806.701 518.835 806.701C515.41 806.105 513.402 805.627 513.402 803.719C513.402 802.049 515.055 801.094 517.772 801.094C520.607 801.094 523.088 801.929 525.45 803.242C525.568 803.361 525.687 803.361 525.805 803.361C525.923 803.242 526.041 803.242 526.041 803.122C528.64 797.873 528.64 797.873 528.64 797.873C528.758 797.873 528.758 797.635 528.758 797.515C528.758 797.396 528.64 797.277 528.522 797.277C524.151 794.772 520.962 794.295 517.536 794.295C510.803 794.295 506.196 798.231 506.196 804.077C506.196 809.206 509.031 812.189 515.055 813.143C516.473 813.381 516.473 813.381 516.473 813.381C520.017 814.097 522.025 814.455 522.025 816.483C522.025 818.63 519.544 819.227 517.536 819.227C514.347 819.227 511.512 818.272 508.913 816.483C508.795 816.483 508.558 816.483 508.558 816.483C508.322 816.483 508.322 816.602 508.204 816.722C505.369 821.851 505.369 821.851 505.369 821.851C505.133 822.09 505.251 822.328 505.487 822.448C508.44 824.834 512.811 826.146 517.536 826.146C526.159 826.146 529.23 820.778 529.23 815.887C529.23 810.876 526.395 808.133 520.371 807.059Z" fill="#636466"/>
<path d="M405.199 807.059C403.546 806.701 403.546 806.701 403.546 806.701C400.238 806.105 398.23 805.627 398.23 803.719C398.23 802.049 399.766 801.094 402.601 801.094C405.317 801.094 407.798 801.929 410.279 803.242C410.397 803.361 410.515 803.361 410.633 803.361C410.751 803.242 410.869 803.242 410.869 803.122C413.468 797.873 413.468 797.873 413.468 797.873C413.586 797.873 413.586 797.635 413.586 797.515C413.468 797.396 413.468 797.277 413.35 797.277C408.979 794.772 405.79 794.295 402.364 794.295C395.631 794.295 391.024 798.231 391.024 804.077C391.024 809.206 393.859 812.189 399.884 813.143C401.183 813.381 401.183 813.381 401.183 813.381C404.845 814.097 406.735 814.455 406.735 816.483C406.735 818.63 404.372 819.227 402.364 819.227C399.175 819.227 396.222 818.272 393.741 816.483C393.623 816.483 393.387 816.483 393.387 816.483C393.387 816.483 393.15 816.602 393.15 816.722C390.197 821.851 390.197 821.851 390.197 821.851C390.079 822.09 390.197 822.328 390.315 822.448C393.387 824.834 397.757 826.146 402.482 826.146C411.106 826.146 414.177 820.778 414.177 815.887C414.059 810.876 411.106 808.133 405.199 807.059Z" fill="#636466"/>
<path d="M560.416 794.772C554.51 794.772 554.51 794.772 554.51 794.772C554.273 794.772 554.155 795.01 554.155 795.249C554.155 812.666 554.155 812.666 554.155 812.666C554.155 816.722 552.147 818.869 548.603 818.869C545.06 818.869 543.051 816.722 543.051 812.666C543.051 795.249 543.051 795.249 543.051 795.249C543.051 795.01 542.815 794.772 542.697 794.772C536.791 794.772 536.791 794.772 536.791 794.772C536.436 794.772 536.318 795.01 536.318 795.249C536.318 813.024 536.318 813.024 536.318 813.024C536.318 821.255 540.807 825.907 548.603 825.907C556.4 825.907 560.888 821.255 560.888 813.024C560.888 795.249 560.888 795.249 560.888 795.249C560.77 795.01 560.652 794.772 560.416 794.772Z" fill="#636466"/>
<path d="M595.027 794.772C589.12 794.772 589.12 794.772 589.12 794.772C588.766 794.772 588.766 795.01 588.766 795.249C588.766 813.501 588.766 813.501 588.766 813.501C576.009 795.01 576.009 795.01 576.009 795.01C575.89 794.891 575.772 794.772 575.654 794.772C569.866 794.772 569.866 794.772 569.866 794.772C569.512 794.772 569.512 795.01 569.512 795.249C569.512 824.953 569.512 824.953 569.512 824.953C569.512 825.191 569.63 825.43 569.866 825.43C575.772 825.43 575.772 825.43 575.772 825.43C576.009 825.43 576.127 825.191 576.127 824.953C576.127 806.82 576.127 806.82 576.127 806.82C588.766 825.191 588.766 825.191 588.766 825.191C588.884 825.311 589.002 825.43 589.12 825.43C595.027 825.43 595.027 825.43 595.027 825.43C595.263 825.43 595.381 825.191 595.381 824.953C595.381 795.249 595.381 795.249 595.381 795.249C595.499 795.01 595.263 794.772 595.027 794.772Z" fill="#636466"/>
<path d="M631.765 807.417C631.647 807.178 631.529 807.059 631.411 807.059C617.826 807.059 617.826 807.059 617.826 807.059C617.59 807.059 617.472 807.178 617.472 807.536C617.472 812.546 617.472 812.546 617.472 812.546C617.472 812.904 617.708 813.024 617.826 813.024C625.268 813.024 625.268 813.024 625.268 813.024C624.087 816.602 620.897 819.108 617.472 819.108C613.101 819.108 609.557 815.052 609.557 810.041C609.557 805.27 612.747 801.333 617.117 801.094H617.236C617.59 801.094 617.59 801.094 617.59 801.094C619.952 801.094 622.197 802.168 623.732 804.077C623.851 804.315 624.087 804.315 624.323 804.196C628.576 800.498 628.576 800.498 628.576 800.498C628.694 800.379 628.694 800.259 628.812 800.14C628.812 800.021 628.694 799.901 628.576 799.782C625.741 796.203 621.842 794.175 617.59 794.175C609.557 794.175 603.061 801.214 603.061 809.922C603.061 818.63 609.557 825.788 617.59 825.788C624.559 825.788 630.584 820.42 631.883 812.904C632.119 811.95 632.237 810.876 632.237 809.922C632.001 809.206 631.883 808.371 631.765 807.417Z" fill="#636466"/>
<path d="M412.76 835.57C392.206 835.57 392.206 835.57 392.206 835.57C391.852 835.57 391.852 835.809 391.852 836.047C391.852 865.751 391.852 865.751 391.852 865.751C391.852 865.99 391.97 866.228 392.206 866.228C412.76 866.228 412.76 866.228 412.76 866.228C412.996 866.228 413.114 865.99 413.114 865.751C413.114 860.144 413.114 860.144 413.114 860.144C413.114 859.786 412.878 859.548 412.76 859.548C398.467 859.548 398.467 859.548 398.467 859.548C398.467 853.822 398.467 853.822 398.467 853.822C411.933 853.822 411.933 853.822 411.933 853.822C412.169 853.822 412.287 853.702 412.287 853.345C412.287 848.334 412.287 848.334 412.287 848.334C412.287 847.976 412.051 847.857 411.933 847.857C398.467 847.857 398.467 847.857 398.467 847.857C398.467 842.131 398.467 842.131 398.467 842.131C412.76 842.131 412.76 842.131 412.76 842.131C412.996 842.131 413.114 841.892 413.114 841.654C413.114 835.928 413.114 835.928 413.114 835.928C413.232 835.809 412.996 835.57 412.76 835.57Z" fill="#636466"/>
<path d="M477.965 847.857C464.381 847.857 464.381 847.857 464.381 847.857C464.145 847.857 464.026 848.096 464.026 848.334C464.026 853.345 464.026 853.345 464.026 853.345C464.026 853.702 464.263 853.941 464.381 853.941C471.823 853.941 471.823 853.941 471.823 853.941C470.641 857.401 467.452 859.906 464.026 859.906C459.656 859.906 456.112 855.969 456.112 850.959C456.112 846.068 459.301 842.131 463.672 841.892C463.79 841.892 463.79 841.892 463.79 841.892C464.145 841.892 464.145 841.892 464.145 841.892C466.507 841.892 468.751 842.966 470.287 844.875C470.523 845.113 470.641 845.113 470.878 844.994C475.13 841.296 475.13 841.296 475.13 841.296C475.248 841.177 475.366 841.057 475.366 840.938C475.366 840.819 475.248 840.7 475.248 840.58C472.413 837.001 468.397 834.973 464.145 834.973C456.112 834.973 449.615 842.131 449.615 850.839C449.615 859.548 456.112 866.586 464.145 866.586C471.114 866.586 477.138 861.218 478.438 853.822C478.674 852.867 478.792 851.794 478.792 850.839C478.792 849.885 478.674 849.05 478.556 848.096C478.201 847.976 478.083 847.857 477.965 847.857Z" fill="#636466"/>
<path d="M431.069 860.621C428.234 860.621 426.107 858.236 426.107 855.373C426.107 854.18 426.462 852.867 427.289 851.913C434.14 859.429 434.14 859.429 434.14 859.429C433.431 860.144 432.132 860.621 431.069 860.621ZM445.125 862.769C441.582 858.832 441.582 858.832 441.582 858.832C444.889 852.271 444.889 852.271 444.889 852.271C445.007 852.032 444.889 851.794 444.653 851.675C440.519 849.169 440.519 849.169 440.519 849.169C440.282 849.05 440.046 849.169 439.928 849.408C437.447 854.299 437.447 854.299 437.447 854.299C429.415 845.591 429.415 845.591 429.415 845.591C428.47 844.517 428.47 842.847 429.415 841.773C429.769 841.177 430.478 840.938 431.187 840.938C431.777 840.938 432.368 841.177 432.959 841.773C433.313 842.25 433.431 842.728 433.549 843.205C433.667 843.443 433.785 843.682 433.904 843.682C439.101 843.682 439.101 843.682 439.101 843.682C439.219 843.682 439.337 843.563 439.455 843.443C439.455 843.443 439.574 843.324 439.574 843.085C439.455 840.819 438.51 838.672 437.093 837.121C435.439 835.331 433.431 834.377 431.187 834.377C428.942 834.377 426.816 835.331 425.162 837.121C423.509 838.791 422.682 841.177 422.682 843.563C422.682 844.756 422.918 846.068 423.509 847.261C423.509 847.261 419.965 850.004 419.965 855.492C419.965 861.814 424.926 867.063 431.069 867.063C433.785 867.063 436.384 865.99 438.51 863.842C441.345 866.825 441.345 866.825 441.345 866.825C441.464 866.944 441.582 867.063 441.7 867.063C441.818 867.063 441.936 866.944 442.054 866.825C445.244 863.365 445.244 863.365 445.244 863.365C445.362 863.365 445.362 863.007 445.125 862.769Z" fill="#636466"/>
<path d="M257.779 848.811C257.779 860.979 266.993 871.119 278.333 871.119C286.247 871.119 292.744 865.87 295.816 860.264C267.938 829.725 267.938 829.725 267.938 829.725C262.622 832.707 257.779 839.984 257.779 848.811ZM285.893 828.054C292.154 824.953 296.642 818.034 296.642 809.922C296.642 798.828 288.492 790 278.333 790C268.174 790 260.024 798.828 260.024 809.922C260.024 818.034 264.394 824.953 270.773 828.054C297.469 856.923 297.469 856.923 297.469 856.923C298.414 854.299 298.887 851.555 298.887 848.692C298.887 839.268 293.453 831.275 285.893 828.054Z" fill="#0097DC"/>
</g>
<defs>
<clipPath id="clip0">
<rect x="196" y="790" width="436" height="81" fill="white"/>
</clipPath>
</defs>
</svg>
